{
.appVersion = "3151";
.formatVersion = 3;
DisplayStrings = (
"/ma-sp/pona-sp/pi-sp/toki-sp/pona-sp",
"/akesi-sp",
"/ala-sp",
"/ma-sp/pi-sp/nasin-sp/sitelen-sp",
"/kepeken-sp",
"/ilo-sp",
"/ona-sp",
"/ike-sp",
"/ona-sp/li-sp/kepeken-sp/e-sp/ilo-sp/pi-sp/ike-sp/suli-sp"
);
date = "2024-01-31 22:28:46 +0000";
familyName = "New Font";
fontMaster = (
{
id = m01;
metricValues = (
{
over = 16;
pos = 800;
},
{
over = 16;
pos = 700;
},
{
over = 16;
pos = 500;
},
{
over = -16;
},
{
over = -16;
pos = -200;
},
{
over = -16;
}
);
name = Regular;
userData = {
GSOffsetCapStyle = 1;
GSOffsetHorizontal = 10;
GSOffsetKeepCompatible = 1;
GSOffsetMakeStroke = 1;
GSOffsetVertical = 10;
};
}
);
glyphs = (
{
glyphname = "a-sp";
lastChange = "2024-01-31 22:29:44 +0000";
layers = (
{
layerId = m01;
shapes = (
{
closed = 1;
nodes = (
(183,259,o),
(174,284,o),
(167,310,cs),
(163,322,o),
(161,327,o),
(153,327,cs),
(151,327,o),
(142,299,o),
(139,292,cs),
(133,277,o),
(102,234,o),
(82,234,cs),
(79,234,o),
(78,235,o),
(75,242,cs),
(73,245,o),
(72,248,o),
(72,252,cs),
(72,283,o),
(118,319,o),
(137,319,cs),
(139,319,o),
(136,321,o),
(136,320,cs),
(136,318,o),
(136,318,o),
(136,318,c),
(133,313,o),
(137,304,o),
(145,304,cs),
(149,304,o),
(152,306,o),
(154,310,cs),
(155,313,o),
(156,317,o),
(156,320,cs),
(156,332,o),
(148,339,o),
(137,339,cs),
(110,339,o),
(52,295,o),
(52,252,cs),
(52,246,o),
(53,239,o),
(57,232,cs),
(63,219,o),
(74,214,o),
(82,214,cs),
(113,214,o),
(151,266,o),
(157,284,cs),
(162,295,o),
(151,307,o),
(153,307,cs),
(154,307,o),
(145,311,o),
(147,304,cs),
(154,278,o),
(165,253,o),
(172,226,c),
(174,222,o),
(177,219,o),
(182,219,cs),
(188,219,o),
(193,226,o),
(192,232,c)
);
},
{
closed = 1;
nodes = (
(498,150,o),
(499,158,o),
(499,167,cs),
(499,179,o),
(498,192,o),
(493,205,cs),
(480,237,o),
(403,303,o),
(358,303,cs),
(354,303,o),
(347,303,o),
(343,301,cs),
(301,283,o),
(277,224,o),
(263,189,c),
(258,184,o),
(283,190,o),
(283,192,cs),
(283,194,o),
(283,196,o),
(283,198,cs),
(283,202,o),
(283,207,o),
(283,210,cs),
(285,230,o),
(284,249,o),
(285,266,cs),
(289,330,o),
(308,392,o),
(316,458,cs),
(317,463,o),
(312,469,o),
(306,469,cs),
(301,469,o),
(297,465,o),
(296,460,cs),
(288,396,o),
(269,334,o),
(265,268,cs),
(264,249,o),
(265,230,o),
(263,212,cs),
(263,207,o),
(263,202,o),
(263,198,cs),
(263,196,o),
(263,194,o),
(263,192,cs),
(263,190,o),
(280,186,o),
(283,185,c),
(297,220,o),
(317,269,o),
(351,283,c),
(352,283,o),
(354,283,o),
(358,283,cs),
(394,283,o),
(464,224,o),
(475,197,cs),
(478,188,o),
(479,179,o),
(479,167,cs),
(479,160,o),
(478,152,o),
(478,143,cs),
(478,137,o),
(482,133,o),
(488,133,cs),
(494,133,o),
(498,137,o),
(498,143,cs)
);
}
);
width = 600;
}
);
unicode = 989440;
},
{
glyphname = "akesi-sp";
lastChange = "2024-01-31 22:30:12 +0000";
layers = (
{
layerId = m01;
shapes = (
{
closed = 1;
nodes = (
(64,553,o),
(54,521,o),
(54,477,cs),
(54,464,o),
(55,450,o),
(55,435,cs),
(55,429,o),
(59,425,o),
(65,425,cs),
(71,425,o),
(75,429,o),
(75,435,cs),
(75,450,o),
(74,464,o),
(74,477,cs),
(74,516,o),
(79,533,o),
(135,533,cs),
(141,533,o),
(145,537,o),
(145,543,cs),
(145,549,o),
(141,553,o),
(135,553,cs)
);
},
{
closed = 1;
nodes = (
(231,453,o),
(222,451,o),
(212,451,cs),
(189,451,o),
(177,459,o),
(177,476,cs),
(177,485,o),
(180,496,o),
(189,508,cs),
(194,514,o),
(199,521,o),
(204,524,cs),
(210,527,o),
(214,528,o),
(219,528,cs),
(227,528,o),
(228,527,o),
(228,522,cs),
(228,508,o),
(209,490,o),
(148,489,cs),
(142,489,o),
(138,485,o),
(138,479,cs),
(138,473,o),
(142,469,o),
(148,469,cs),
(219,470,o),
(248,498,o),
(248,522,cs),
(248,535,o),
(238,548,o),
(219,548,cs),
(212,548,o),
(204,547,o),
(194,542,cs),
(185,537,o),
(178,526,o),
(173,520,cs),
(162,504,o),
(157,489,o),
(157,476,cs),
(157,448,o),
(182,431,o),
(212,431,cs),
(224,431,o),
(237,433,o),
(250,439,cs),
(253,440,o),
(256,444,o),
(256,448,cs),
(256,455,o),
(249,460,o),
(242,457,cs)
);
},
{
closed = 1;
nodes = (
(321,462,o),
(334,468,o),
(346,477,cs),
(370,493,o),
(380,511,o),
(380,525,cs),
(380,546,o),
(362,560,o),
(340,560,cs),
(316,560,o),
(286,541,o),
(280,494,cs),
(279,486,o),
(278,477,o),
(278,468,cs),
(278,458,o),
(279,447,o),
(280,438,cs),
(280,424,o),
(278,337,o),
(308,377,c),
(309,379,o),
(309,380,o),
(309,382,cs),
(311,392,o),
(312,402,o),
(313,413,cs),
(316,446,o),
(312,477,o),
(320,507,cs),
(327,531,o),
(289,511,o),
(314,511,c),
(314,511,o),
(314,511,o),
(315,511,cs),
(321,511,o),
(325,515,o),
(325,521,cs),
(325,527,o),
(321,531,o),
(315,531,cs),
(314,531,o),
(314,531,o),
(314,531,c),
(307,531,o),
(302,518,o),
(300,513,c),
(292,479,o),
(296,446,o),
(293,415,cs),
(292,404,o),
(291,394,o),
(289,384,c),
(288,367,o),
(306,379,o),
(303,384,c),
(300,393,o),
(300,429,o),
(300,438,cs),
(299,449,o),
(298,458,o),
(298,468,cs),
(298,475,o),
(299,484,o),
(300,492,cs),
(304,528,o),
(323,540,o),
(340,540,cs),
(354,540,o),
(360,535,o),
(360,525,cs),
(360,517,o),
(354,507,o),
(334,493,cs),
(324,486,o),
(313,480,o),
(301,474,cs),
(297,472,o),
(295,469,o),
(295,465,cs),
(295,457,o),
(304,453,o),
(309,456,cs)
);
},
{
closed = 1;
nodes = (
(171,99,o),
(173,106,o),
(174,112,cs),
(179,137,o),
(180,161,o),
(181,185,cs),
(181,191,o),
(181,198,o),
(181,204,cs),
(181,212,o),
(181,221,o),
(181,229,cs),
(181,276,o),
(183,321,o),
(204,365,cs),
(207,370,o),
(203,379,o),
(195,379,cs),
(191,379,o),
(188,377,o),
(186,373,cs),
(163,327,o),
(161,276,o),
(161,229,cs),
(161,221,o),
(161,212,o),
(161,204,cs),
(161,198,o),
(161,191,o),
(161,185,cs),
(160,161,o),
(159,139,o),
(154,116,cs),
(153,110,o),
(151,105,o),
(149,98,cs),
(148,92,o),
(153,85,o),
(159,85,cs),
(164,85,o),
(167,88,o),
(169,92,cs)
);
},
{
closed = 1;
nodes = (
(227,273,o),
(214,271,o),
(198,271,cs),
(173,271,o),
(144,275,o),
(124,275,cs),
(118,275,o),
(114,271,o),
(114,265,cs),
(114,259,o),
(118,255,o),
(124,255,cs),
(142,255,o),
(171,251,o),
(198,251,cs),
(216,251,o),
(233,253,o),
(245,259,c),
(249,260,o),
(251,264,o),
(251,268,cs),
(251,275,o),
(243,280,o),
(237,277,cs)
);
},
{
closed = 1;
nodes = (
(241,112,o),
(241,112,o),
(241,102,c),
(263,96,o),
(261,113,o),
(264,123,c),
(265,132,o),
(265,152,o),
(266,161,cs),
(267,189,o),
(270,216,o),
(275,243,cs),
(276,249,o),
(271,255,o),
(265,255,cs),
(260,255,o),
(256,251,o),
(255,247,cs),
(250,218,o),
(247,191,o),
(246,163,cs),
(245,154,o),
(245,136,o),
(244,127,cs),
(244,122,o),
(254,122,o),
(261,122,c),
(261,113,o),
(261,113,o),
(261,113,c),
(261,119,o),
(257,123,o),
(251,123,cs),
(245,123,o),
(241,119,o),
(241,113,cs)
);
},
{
closed = 1;
nodes = (
(280,285,o),
(279,298,o),
(282,307,cs),
(285,313,o),
(280,320,o),
(273,320,cs),
(269,320,o),
(265,317,o),
(264,313,cs),
(259,300,o),
(260,285,o),
(259,274,cs),
(259,268,o),
(263,263,o),
(269,263,cs),
(274,263,o),
(279,267,o),
(279,272,cs)
);
},
{
closed = 1;
nodes = (
(327,129,o),
(328,160,o),
(328,190,cs),
(328,219,o),
(327,249,o),
(324,276,cs),
(323,281,o),
(319,285,o),
(314,285,cs),
(308,285,o),
(303,280,o),
(304,274,cs),
(307,247,o),
(308,219,o),
(308,190,cs),
(308,160,o),
(307,131,o),
(303,103,cs),
(302,97,o),
(307,92,o),
(313,92,cs),
(318,92,o),
(322,96,o),
(323,101,cs)
);
},
{
closed = 1;
nodes = (
(518,103,o),
(511,102,o),
(505,102,cs),
(455,102,o),
(413,151,o),
(413,194,cs),
(413,216,o),
(423,234,o),
(451,245,c),
(459,247,o),
(467,248,o),
(474,248,cs),
(495,248,o),
(508,242,o),
(508,229,cs),
(508,223,o),
(506,218,o),
(496,208,cs),
(470,177,o),
(418,160,o),
(378,160,cs),
(372,160,o),
(368,156,o),
(368,150,cs),
(368,144,o),
(372,140,o),
(378,140,cs),
(422,140,o),
(482,159,o),
(512,194,cs),
(523,207,o),
(528,218,o),
(528,229,cs),
(528,256,o),
(500,268,o),
(474,268,cs),
(465,268,o),
(455,267,o),
(445,263,cs),
(408,250,o),
(393,222,o),
(393,194,cs),
(393,142,o),
(444,82,o),
(505,82,cs),
(513,82,o),
(522,83,o),
(530,85,c),
(534,87,o),
(537,90,o),
(537,95,cs),
(537,101,o),
(530,106,o),
(524,105,cs)
);
}
);
width = 600;
}
);
unicode = 989441;
},
{
glyphname = "ala-sp";
lastChange = "2024-01-31 22:30:31 +0000";
layers = (
{
layerId = m01;
shapes = (
{
closed = 1;
nodes = (
(234,285,o),
(236,309,o),
(236,334,cs),
(236,377,o),
(229,427,o),
(217,455,cs),
(200,496,o),
(172,523,o),
(140,523,cs),
(118,523,o),
(95,509,o),
(76,481,cs),
(48,441,o),
(43,396,o),
(43,352,cs),
(43,321,o),
(45,290,o),
(45,260,cs),
(45,249,o),
(45,238,o),
(44,229,cs),
(43,223,o),
(48,218,o),
(54,218,cs),
(59,218,o),
(63,222,o),
(64,227,cs),
(65,238,o),
(65,249,o),
(65,260,cs),
(65,290,o),
(63,321,o),
(63,352,cs),
(63,394,o),
(68,433,o),
(92,469,cs),
(109,494,o),
(124,503,o),
(140,503,cs),
(163,503,o),
(184,483,o),
(199,447,cs),
(209,421,o),
(216,375,o),
(216,334,cs),
(216,309,o),
(214,289,o),
(209,275,cs),
(206,268,o),
(211,261,o),
(218,261,cs),
(222,261,o),
(226,264,o),
(227,267,cs)
);
},
{
closed = 1;
nodes = (
(479,435,o),
(534,400,o),
(548,322,cs),
(549,316,o),
(550,311,o),
(550,305,cs),
(550,257,o),
(517,206,o),
(468,200,cs),
(459,199,o),
(450,199,o),
(440,199,cs),
(439,199,o),
(439,199,o),
(439,199,c),
(425,199,o),
(411,200,o),
(398,200,cs),
(390,200,o),
(381,199,o),
(374,199,cs),
(365,199,o),
(358,200,o),
(352,202,cs),
(342,206,o),
(336,251,o),
(335,264,cs),
(334,276,o),
(333,286,o),
(333,298,cs),
(333,350,o),
(348,394,o),
(384,435,cs),
(395,446,o),
(407,463,o),
(417,464,cs),
(423,464,o),
(427,468,o),
(427,474,cs),
(427,480,o),
(423,484,o),
(417,484,cs),
(395,483,o),
(379,458,o),
(370,449,cs),
(330,404,o),
(313,354,o),
(313,298,cs),
(313,286,o),
(314,274,o),
(315,262,cs),
(316,249,o),
(322,192,o),
(344,184,cs),
(352,180,o),
(363,179,o),
(374,179,cs),
(383,179,o),
(392,180,o),
(398,180,cs),
(411,180,o),
(425,179,o),
(439,179,c),
(439,179,o),
(439,179,o),
(440,179,cs),
(450,179,o),
(459,179,o),
(470,180,cs),
(530,188,o),
(570,250,o),
(570,305,cs),
(570,313,o),
(569,320,o),
(568,326,cs),
(552,412,o),
(489,453,o),
(419,483,cs),
(412,486,o),
(405,481,o),
(405,474,cs),
(405,470,o),
(407,466,o),
(411,465,c)
);
}
);
width = 600;
}
);
unicode = 989442;
},
{
glyphname = "alasa-sp";
lastChange = "2024-01-31 22:30:49 +0000";
layers = (
{
layerId = m01;
shapes = (
{
closed = 1;
nodes = (
(134,349,o),
(210,369,o),
(210,413,cs),
(210,422,o),
(203,427,o),
(198,430,cs),
(181,443,o),
(160,450,o),
(150,466,c),
(148,468,o),
(148,469,o),
(148,472,cs),
(148,483,o),
(163,490,o),
(176,490,cs),
(182,490,o),
(186,494,o),
(186,500,cs),
(186,506,o),
(182,510,o),
(176,510,cs),
(158,510,o),
(128,497,o),
(128,472,cs),
(128,467,o),
(130,460,o),
(134,454,cs),
(146,434,o),
(171,425,o),
(186,414,cs),
(190,411,o),
(190,409,o),
(190,413,cs),
(190,385,o),
(129,369,o),
(104,363,cs),
(99,362,o),
(96,358,o),
(96,353,cs),
(96,347,o),
(102,342,o),
(108,343,cs)
);
},
{
closed = 1;
nodes = (
(310,364,o),
(305,363,o),
(301,363,cs),
(270,363,o),
(250,386,o),
(250,414,cs),
(250,430,o),
(257,444,o),
(275,457,cs),
(280,461,o),
(283,462,o),
(286,462,cs),
(288,462,o),
(288,462,o),
(288,458,cs),
(288,445,o),
(275,425,o),
(236,410,cs),
(232,409,o),
(229,405,o),
(229,401,cs),
(229,394,o),
(236,389,o),
(242,392,c),
(290,409,o),
(308,438,o),
(308,458,cs),
(308,475,o),
(298,482,o),
(286,482,cs),
(279,482,o),
(270,479,o),
(263,473,cs),
(241,457,o),
(230,435,o),
(230,414,cs),
(230,377,o),
(259,343,o),
(301,343,cs),
(307,343,o),
(314,344,o),
(321,347,cs),
(325,348,o),
(328,352,o),
(328,356,cs),
(328,365,o),
(320,367,o),
(315,365,cs)
);
},
{
closed = 1;
nodes = (
(429,407,o),
(415,420,o),
(409,443,c),
(407,447,o),
(409,460,o),
(406,466,cs),
(398,484,o),
(385,443,o),
(381,428,cs),
(377,418,o),
(345,373,o),
(328,373,cs),
(326,373,o),
(326,373,o),
(324,376,cs),
(323,377,o),
(323,379,o),
(323,381,cs),
(323,406,o),
(355,448,o),
(373,448,cs),
(377,448,o),
(378,447,o),
(379,432,cs),
(379,426,o),
(383,422,o),
(389,422,cs),
(395,422,o),
(399,426,o),
(399,432,cs),
(398,459,o),
(385,468,o),
(373,468,cs),
(343,468,o),
(303,413,o),
(303,381,cs),
(303,376,o),
(305,370,o),
(306,368,cs),
(311,358,o),
(319,353,o),
(328,353,cs),
(356,353,o),
(395,408,o),
(399,422,cs),
(404,434,o),
(388,458,o),
(388,458,c),
(389,454,o),
(388,443,o),
(389,437,cs),
(397,410,o),
(417,391,o),
(436,377,cs),
(438,376,o),
(440,375,o),
(442,375,cs),
(448,375,o),
(452,379,o),
(452,385,cs),
(452,388,o),
(450,391,o),
(448,393,cs)
);
},
{
closed = 1;
nodes = (
(505,481,o),
(473,502,o),
(470,416,cs),
(470,409,o),
(469,399,o),
(469,390,cs),
(469,381,o),
(470,368,o),
(474,360,c),
(475,356,o),
(479,354,o),
(483,354,cs),
(490,354,o),
(495,361,o),
(492,368,cs),
(490,374,o),
(489,381,o),
(489,390,cs),
(489,399,o),
(490,409,o),
(490,416,cs),
(492,470,o),
(497,460,o),
(555,468,cs),
(560,469,o),
(564,473,o),
(564,478,cs),
(564,484,o),
(559,489,o),
(553,488,cs)
);
},
{
closed = 1;
nodes = (
(320,181,o),
(312,180,o),
(302,180,cs),
(270,180,o),
(239,191,o),
(238,219,cs),
(238,220,o),
(238,223,o),
(238,225,cs),
(238,227,o),
(238,228,o),
(238,228,c),
(255,236,o),
(313,240,o),
(334,241,cs),
(340,241,o),
(344,245,o),
(344,251,cs),
(344,257,o),
(340,261,o),
(334,261,cs),
(311,260,o),
(242,256,o),
(225,244,cs),
(220,240,o),
(218,233,o),
(218,225,cs),
(218,223,o),
(218,220,o),
(218,219,cs),
(219,176,o),
(265,160,o),
(302,160,cs),
(312,160,o),
(324,161,o),
(332,163,cs),
(337,164,o),
(340,168,o),
(340,173,cs),
(340,179,o),
(334,184,o),
(328,183,cs)
);
},
{
closed = 1;
nodes = (
(534,53,o),
(536,61,o),
(536,67,cs),
(536,82,o),
(525,96,o),
(504,97,cs),
(500,97,o),
(497,97,o),
(493,97,cs),
(473,97,o),
(450,92,o),
(432,82,c),
(432,82,o),
(430,80,o),
(428,79,c),
(428,79,o),
(428,79,o),
(428,79,c),
(428,83,o),
(428,88,o),
(428,93,cs),
(428,117,o),
(428,140,o),
(428,164,cs),
(428,200,o),
(427,237,o),
(422,274,cs),
(421,279,o),
(417,283,o),
(412,283,cs),
(406,283,o),
(401,278,o),
(402,272,cs),
(407,235,o),
(408,200,o),
(408,164,cs),
(408,140,o),
(408,117,o),
(408,93,cs),
(408,88,o),
(408,83,o),
(408,79,cs),
(408,51,o),
(415,36,o),
(431,57,c),
(436,60,o),
(440,63,o),
(442,64,cs),
(458,74,o),
(475,77,o),
(493,77,cs),
(497,77,o),
(500,77,o),
(504,77,cs),
(514,76,o),
(516,74,o),
(516,67,cs),
(516,63,o),
(516,61,o),
(513,57,cs),
(510,51,o),
(513,42,o),
(522,42,cs),
(526,42,o),
(529,44,o),
(531,47,cs)
);
}
);
width = 600;
}
);
unicode = 989443;
},
{
glyphname = "ale-sp";
lastChange = "2024-01-31 22:31:10 +0000";
layers = (
{
layerId = m01;
shapes = (
{
closed = 1;
nodes = (
(-117,50,o),
(-117,50,o),
(-117,49,c),
(-117,50,o),
(-117,50,o),
(-118,51,c)
);
},
{
closed = 1;
nodes = (
(204,217,o),
(179,260,o),
(170,274,cs),
(150,310,o),
(120,382,o),
(120,432,cs),
(120,439,o),
(121,445,o),
(122,451,c),
(119,451,o),
(101,451,o),
(104,448,c),
(109,433,o),
(114,417,o),
(117,402,cs),
(118,399,o),
(118,393,o),
(118,383,cs),
(118,345,o),
(112,283,o),
(96,282,cs),
(95,282,o),
(95,282,o),
(94,282,cs),
(78,282,o),
(73,294,o),
(73,318,cs),
(73,357,o),
(93,410,o),
(107,422,cs),
(109,424,o),
(110,427,o),
(110,430,cs),
(110,436,o),
(106,440,o),
(100,440,cs),
(97,440,o),
(95,439,o),
(93,438,c),
(75,421,o),
(53,361,o),
(53,318,cs),
(53,289,o),
(64,262,o),
(94,262,cs),
(95,262,o),
(95,262,o),
(96,262,cs),
(132,263,o),
(138,345,o),
(138,383,cs),
(138,393,o),
(138,401,o),
(137,406,cs),
(134,421,o),
(129,437,o),
(124,452,c),
(122,463,o),
(108,472,o),
(102,457,c),
(101,451,o),
(100,441,o),
(100,432,cs),
(100,378,o),
(132,302,o),
(152,264,c),
(163,248,o),
(193,187,o),
(210,197,cs),
(213,199,o),
(215,202,o),
(215,206,cs),
(215,215,o),
(206,218,o),
(200,215,cs)
);
},
{
closed = 1;
nodes = (
(265,242,o),
(260,370,o),
(259,470,cs),
(259,475,o),
(257,510,o),
(257,540,cs),
(257,559,o),
(258,573,o),
(259,578,c),
(259,578,o),
(259,578,o),
(256,575,c),
(253,574,o),
(250,572,o),
(250,570,c),
(265,551,o),
(279,531,o),
(288,509,cs),
(296,485,o),
(300,459,o),
(300,433,cs),
(300,391,o),
(290,349,o),
(278,309,cs),
(272,292,o),
(264,276,o),
(254,259,cs),
(252,255,o),
(227,237,o),
(238,237,cs),
(233,237,o),
(247,227,o),
(247,229,c),
(247,229,o),
(247,230,o),
(247,230,c),
(247,236,o),
(243,240,o),
(237,240,cs),
(231,240,o),
(227,236,o),
(227,230,c),
(227,230,o),
(227,229,o),
(227,229,c),
(227,223,o),
(230,217,o),
(238,217,cs),
(248,217,o),
(265,238,o),
(272,249,cs),
(282,266,o),
(290,284,o),
(296,303,cs),
(310,343,o),
(320,389,o),
(320,433,cs),
(320,461,o),
(316,489,o),
(306,515,cs),
(297,541,o),
(280,564,o),
(265,584,c),
(266,582,o),
(256,600,o),
(248,595,c),
(244,591,o),
(245,592,o),
(243,590,cs),
(238,584,o),
(237,565,o),
(237,540,cs),
(237,510,o),
(239,475,o),
(239,470,cs),
(240,370,o),
(245,234,o),
(311,147,cs),
(313,145,o),
(316,143,o),
(319,143,cs),
(325,143,o),
(329,147,o),
(329,153,cs),
(329,155,o),
(328,157,o),
(327,159,c)
);
},
{
closed = 1;
nodes = (
(518,-69,o),
(517,-69,o),
(514,-69,cs),
(470,-69,o),
(444,42,o),
(437,78,cs),
(422,149,o),
(409,220,o),
(408,292,c),
(407,296,o),
(407,302,o),
(407,307,cs),
(407,333,o),
(415,410,o),
(419,453,cs),
(421,470,o),
(423,488,o),
(426,504,cs),
(428,517,o),
(430,558,o),
(434,558,c),
(434,558,o),
(434,558,o),
(439,551,cs),
(451,531,o),
(457,512,o),
(458,488,cs),
(459,480,o),
(459,472,o),
(459,463,cs),
(459,412,o),
(449,357,o),
(438,307,cs),
(424,244,o),
(409,176,o),
(374,122,cs),
(370,117,o),
(373,107,o),
(382,107,cs),
(386,107,o),
(389,109,o),
(390,112,c),
(427,168,o),
(444,240,o),
(458,303,cs),
(469,353,o),
(479,410,o),
(479,463,cs),
(479,472,o),
(479,482,o),
(478,490,cs),
(477,516,o),
(469,539,o),
(455,561,cs),
(447,574,o),
(440,578,o),
(434,578,cs),
(420,578,o),
(408,519,o),
(406,508,cs),
(403,490,o),
(401,472,o),
(399,455,cs),
(395,412,o),
(387,335,o),
(387,307,cs),
(387,302,o),
(387,296,o),
(388,290,c),
(389,216,o),
(402,145,o),
(417,74,cs),
(424,38,o),
(453,-89,o),
(514,-89,cs),
(517,-89,o),
(523,-89,o),
(526,-87,c),
(530,-86,o),
(533,-82,o),
(533,-78,cs),
(533,-69,o),
(525,-67,o),
(520,-69,c)
);
}
);
width = 600;
}
);
unicode = 989444;
},
{
glyphname = "anpa-sp";
lastChange = "2024-01-31 22:31:31 +0000";
layers = (
{
layerId = m01;
shapes = (
{
closed = 1;
nodes = (
(56,296,o),
(105,313,o),
(113,317,cs),
(134,327,o),
(156,362,o),
(156,391,cs),
(156,401,o),
(153,412,o),
(146,419,cs),
(141,424,o),
(133,426,o),
(127,426,cs),
(124,426,o),
(118,425,o),
(119,425,cs),
(75,420,o),
(64,365,o),
(64,353,cs),
(64,352,o),
(64,351,o),
(64,341,c),
(82,337,o),
(84,345,o),
(88,362,cs),
(89,369,o),
(92,379,o),
(92,387,cs),
(93,393,o),
(93,397,o),
(93,402,cs),
(93,407,o),
(93,411,o),
(92,416,c),
(92,427,o),
(91,434,o),
(90,436,c),
(71,431,o),
(71,430,o),
(71,430,c),
(96,442,o),
(82,436,o),
(90,439,c),
(89,444,o),
(89,452,o),
(89,464,cs),
(89,482,o),
(90,499,o),
(91,518,cs),
(91,524,o),
(87,528,o),
(81,528,cs),
(75,528,o),
(71,524,o),
(71,518,cs),
(70,501,o),
(69,482,o),
(69,464,cs),
(69,438,o),
(70,431,o),
(70,427,c),
(73,424,o),
(74,423,o),
(79,418,c),
(91,430,o),
(91,431,o),
(91,431,c),
(71,426,o),
(72,422,o),
(72,414,c),
(73,410,o),
(73,408,o),
(73,402,cs),
(73,397,o),
(73,393,o),
(72,389,c),
(72,384,o),
(69,374,o),
(68,366,cs),
(66,358,o),
(74,361,o),
(84,361,c),
(84,353,o),
(84,353,o),
(84,353,c),
(84,362,o),
(92,401,o),
(120,405,cs),
(123,405,o),
(126,406,o),
(127,406,cs),
(130,406,o),
(131,406,o),
(132,405,cs),
(135,402,o),
(136,398,o),
(136,391,cs),
(136,369,o),
(119,342,o),
(105,335,cs),
(99,332,o),
(76,302,o),
(76,313,cs),
(76,319,o),
(72,323,o),
(66,323,cs),
(60,323,o),
(56,319,o),
(56,313,cs)
);
},
{
closed = 1;
nodes = (
(251,431,o),
(256,432,o),
(261,432,cs),
(309,432,o),
(355,370,o),
(355,315,cs),
(355,287,o),
(344,265,o),
(312,253,cs),
(307,251,o),
(303,250,o),
(298,250,cs),
(257,250,o),
(224,313,o),
(224,367,cs),
(224,397,o),
(233,418,o),
(257,423,cs),
(262,424,o),
(265,428,o),
(265,433,cs),
(265,439,o),
(259,444,o),
(253,443,cs),
(218,436,o),
(204,402,o),
(204,367,cs),
(204,308,o),
(243,230,o),
(298,230,cs),
(305,230,o),
(313,231,o),
(320,235,c),
(359,250,o),
(375,282,o),
(375,315,cs),
(375,376,o),
(321,452,o),
(261,452,cs),
(254,452,o),
(247,451,o),
(239,449,c),
(235,447,o),
(232,444,o),
(232,439,cs),
(232,433,o),
(239,428,o),
(245,429,cs)
);
},
{
closed = 1;
nodes = (
(421,234,o),
(430,238,o),
(428,238,cs),
(433,238,o),
(418,320,o),
(415,335,cs),
(404,387,o),
(380,441,o),
(379,491,cs),
(379,497,o),
(375,501,o),
(369,501,cs),
(363,501,o),
(359,497,o),
(359,491,cs),
(360,437,o),
(384,381,o),
(395,331,cs),
(398,316,o),
(420,218,o),
(428,218,cs),
(437,218,o),
(440,225,o),
(442,239,cs),
(443,244,o),
(438,250,o),
(432,250,cs),
(427,250,o),
(423,246,o),
(422,241,cs)
);
},
{
closed = 1;
nodes = (
(560,435,o),
(556,435,o),
(551,435,cs),
(518,435,o),
(474,438,o),
(433,438,cs),
(402,438,o),
(372,436,o),
(352,430,c),
(348,428,o),
(345,424,o),
(345,420,cs),
(345,413,o),
(352,408,o),
(358,410,cs),
(376,416,o),
(402,418,o),
(433,418,cs),
(474,418,o),
(518,415,o),
(551,415,cs),
(556,415,o),
(560,415,o),
(565,415,cs),
(571,415,o),
(575,419,o),
(575,425,cs),
(575,431,o),
(571,435,o),
(565,435,cs)
);
},
{
closed = 1;
nodes = (
(87,55,o),
(90,90,o),
(96,125,cs),
(97,131,o),
(109,166,o),
(109,183,cs),
(109,193,o),
(104,200,o),
(96,200,cs),
(94,200,o),
(89,199,o),
(86,196,cs),
(84,194,o),
(83,192,o),
(83,189,cs),
(83,183,o),
(87,179,o),
(93,179,cs),
(96,179,o),
(98,180,o),
(100,182,cs),
(101,183,o),
(95,180,o),
(96,180,cs),
(98,180,o),
(89,187,o),
(89,183,cs),
(89,170,o),
(77,135,o),
(76,129,cs),
(70,92,o),
(67,55,o),
(67,19,cs),
(67,13,o),
(71,9,o),
(77,9,cs),
(83,9,o),
(87,13,o),
(87,19,cs)
);
},
{
closed = 1;
nodes = (
(157,132,o),
(116,137,o),
(74,137,cs),
(70,137,o),
(65,137,o),
(60,137,cs),
(50,137,o),
(40,133,o),
(40,121,cs),
(40,115,o),
(44,111,o),
(50,111,cs),
(56,111,o),
(60,115,o),
(60,121,cs),
(60,117,o),
(60,117,o),
(60,117,c),
(65,117,o),
(70,117,o),
(74,117,cs),
(114,117,o),
(155,112,o),
(197,112,cs),
(203,112,o),
(207,116,o),
(207,122,cs),
(207,128,o),
(203,132,o),
(197,132,cs)
);
},
{
closed = 1;
nodes = (
(310,96,o),
(324,73,o),
(324,53,cs),
(324,30,o),
(306,14,o),
(271,14,cs),
(259,14,o),
(246,16,o),
(232,21,cs),
(211,27,o),
(201,45,o),
(201,63,cs),
(201,78,o),
(207,88,o),
(225,88,cs),
(228,88,o),
(233,87,o),
(238,86,cs),
(244,85,o),
(250,90,o),
(250,96,cs),
(250,101,o),
(247,105,o),
(242,106,cs),
(237,107,o),
(230,108,o),
(225,108,cs),
(195,108,o),
(181,85,o),
(181,63,cs),
(181,39,o),
(196,11,o),
(226,1,cs),
(242,-4,o),
(257,-6,o),
(271,-6,cs),
(314,-6,o),
(344,18,o),
(344,53,cs),
(344,80,o),
(325,110,o),
(285,134,cs),
(279,137,o),
(270,134,o),
(270,125,cs),
(270,121,o),
(272,118,o),
(275,116,cs)
);
},
{
closed = 1;
nodes = (
(548,39,o),
(546,57,o),
(545,76,cs),
(544,85,o),
(543,94,o),
(543,102,cs),
(542,118,o),
(537,153,o),
(528,153,cs),
(524,153,o),
(520,150,o),
(518,148,cs),
(500,129,o),
(488,105,o),
(476,84,cs),
(472,76,o),
(468,72,o),
(476,72,cs),
(473,72,o),
(493,51,o),
(481,71,c),
(462,82,o),
(477,138,o),
(444,159,cs),
(438,162,o),
(433,163,o),
(429,163,cs),
(400,163,o),
(388,111,o),
(385,100,cs),
(379,82,o),
(372,65,o),
(368,46,cs),
(367,40,o),
(372,34,o),
(378,34,cs),
(383,34,o),
(387,37,o),
(388,42,cs),
(392,59,o),
(397,76,o),
(403,94,cs),
(408,105,o),
(417,143,o),
(429,143,cs),
(430,143,o),
(431,143,o),
(434,141,cs),
(453,128,o),
(440,77,o),
(468,56,cs),
(470,54,o),
(473,52,o),
(476,52,cs),
(482,52,o),
(491,69,o),
(494,74,cs),
(506,95,o),
(516,117,o),
(532,134,cs),
(535,137,o),
(526,133,o),
(528,133,cs),
(517,133,o),
(522,114,o),
(523,102,cs),
(523,92,o),
(524,83,o),
(525,74,cs),
(526,55,o),
(528,37,o),
(531,18,cs),
(532,14,o),
(536,10,o),
(541,10,cs),
(547,10,o),
(552,16,o),
(551,22,cs)
);
}
);
width = 600;
}
);
unicode = 989445;
},
{
glyphname = "e-sp";
lastChange = "2024-01-31 22:35:03 +0000";
layers = (
{
layerId = m01;
shapes = (
{
closed = 1;
nodes = (
(186,143,o),
(181,143,o),
(176,143,cs),
(117,143,o),
(104,197,o),
(104,256,cs),
(104,280,o),
(107,305,o),
(109,324,cs),
(116,385,o),
(118,453,o),
(158,499,c),
(159,501,o),
(160,504,o),
(160,506,cs),
(160,512,o),
(156,516,o),
(150,516,cs),
(147,516,o),
(144,515,o),
(142,513,cs),
(98,461,o),
(96,387,o),
(89,326,cs),
(87,307,o),
(84,282,o),
(84,256,cs),
(84,194,o),
(101,123,o),
(176,123,cs),
(181,123,o),
(188,123,o),
(195,124,cs),
(200,125,o),
(204,129,o),
(204,134,cs),
(204,140,o),
(199,145,o),
(193,144,cs)
);
},
{
closed = 1;
nodes = (
(163,400,o),
(137,401,o),
(110,401,cs),
(91,401,o),
(70,400,o),
(52,399,cs),
(46,399,o),
(42,395,o),
(42,389,cs),
(42,383,o),
(46,379,o),
(52,379,cs),
(72,380,o),
(91,381,o),
(110,381,cs),
(137,381,o),
(163,380,o),
(189,380,cs),
(195,380,o),
(199,384,o),
(199,390,cs),
(199,396,o),
(195,400,o),
(189,400,cs)
);
},
{
closed = 1;
nodes = (
(365,355,o),
(376,340,o),
(376,320,cs),
(376,282,o),
(331,236,o),
(276,236,cs),
(271,236,o),
(269,236,o),
(267,237,c),
(259,237,o),
(256,243,o),
(254,257,cs),
(253,263,o),
(252,268,o),
(252,272,cs),
(252,328,o),
(279,360,o),
(325,360,cs),
(329,360,o),
(333,360,o),
(338,360,cs),
(344,360,o),
(348,364,o),
(348,370,cs),
(348,376,o),
(344,380,o),
(338,380,cs),
(333,380,o),
(329,380,o),
(325,380,cs),
(268,380,o),
(232,337,o),
(232,272,cs),
(232,266,o),
(233,259,o),
(234,253,cs),
(237,234,o),
(246,219,o),
(263,217,cs),
(267,216,o),
(272,216,o),
(276,216,cs),
(340,216,o),
(396,272,o),
(396,320,cs),
(396,349,o),
(377,373,o),
(333,381,cs),
(327,382,o),
(321,377,o),
(321,371,cs),
(321,366,o),
(325,362,o),
(329,361,cs)
);
},
{
closed = 0;
nodes = (
(-899,897,l),
(-901,901,o),
(-900,899,o),
(-902,903,c)
);
}
);
width = 600;
}
);
unicode = 989449;
},
{
glyphname = "ike-sp";
lastChange = "2024-01-31 22:51:26 +0000";
layers = (
{
layerId = m01;
shapes = (
{
closed = 1;
nodes = (
(175,325,l),
(187,340,o),
(200,352,o),
(213,359,c),
(227,366,o),
(243,370,o),
(261,370,c),
(279,370,o),
(295,366,o),
(309,358,c),
(322,351,o),
(333,340,o),
(340,326,c),
(344,318,o),
(347,309,o),
(348,300,c),
(349,290,o),
(350,278,o),
(350,263,c),
(350,139,l),
(350,126,o),
(347,116,o),
(341,109,c),
(335,102,o),
(327,99,o),
(317,99,c),
(307,99,o),
(299,102,o),
(293,109,c),
(287,116,o),
(284,126,o),
(284,139,c),
(284,251,l),
(284,273,o),
(281,289,o),
(274,301,c),
(268,313,o),
(256,318,o),
(238,318,c),
(226,318,o),
(215,315,o),
(205,308,c),
(196,301,o),
(189,291,o),
(184,279,c),
(181,269,o),
(179,250,o),
(179,223,c),
(179,139,l),
(179,126,o),
(176,116,o),
(170,109,c),
(163,102,o),
(155,99,o),
(145,99,c),
(136,99,o),
(128,102,o),
(122,109,c),
(116,116,o),
(112,126,o),
(112,139,c),
(112,332,l),
(112,345,o),
(115,354,o),
(121,361,c),
(126,367,o),
(134,370,o),
(143,370,c),
(149,370,o),
(155,369,o),
(159,366,c),
(164,363,o),
(168,359,o),
(171,353,c),
(174,348,o),
(175,341,o),
(175,333,c)
);
},
{
closed = 1;
nodes = (
(593,256,l),
(591,279,o),
(585,296,o),
(575,307,c),
(564,318,o),
(550,324,o),
(532,324,c),
(516,324,o),
(502,318,o),
(491,307,c),
(481,295,o),
(474,278,o),
(472,256,c)
);
},
{
closed = 1;
nodes = (
(472,218,l),
(472,203,o),
(475,190,o),
(481,178,c),
(487,166,o),
(495,158,o),
(505,152,c),
(515,146,o),
(526,143,o),
(538,143,c),
(545,143,o),
(553,144,o),
(559,146,c),
(566,148,o),
(572,151,o),
(579,155,c),
(585,159,o),
(590,163,o),
(596,168,c),
(601,172,o),
(608,178,o),
(616,186,c),
(619,189,o),
(624,190,o),
(631,190,c),
(637,190,o),
(643,189,o),
(647,185,c),
(651,181,o),
(653,176,o),
(653,169,c),
(653,163,o),
(651,156,o),
(646,148,c),
(642,140,o),
(635,132,o),
(625,125,c),
(616,117,o),
(604,111,o),
(589,106,c),
(575,101,o),
(558,99,o),
(539,99,c),
(497,99,o),
(463,111,o),
(440,136,c),
(416,160,o),
(404,193,o),
(404,235,c),
(404,255,o),
(407,273,o),
(413,290,c),
(419,307,o),
(427,321,o),
(438,333,c),
(450,345,o),
(463,354,o),
(480,361,c),
(496,367,o),
(515,370,o),
(535,370,c),
(561,370,o),
(583,365,o),
(602,354,c),
(620,343,o),
(634,329,o),
(643,311,c),
(653,294,o),
(657,276,o),
(657,258,c),
(657,241,o),
(653,230,o),
(643,226,c),
(633,221,o),
(620,218,o),
(602,218,c)
);
},
{
closed = 1;
nodes = (
(759,210,o),
(765,189,o),
(777,175,c),
(788,162,o),
(804,155,o),
(822,155,c),
(833,155,o),
(844,158,o),
(854,164,c),
(864,169,o),
(872,178,o),
(878,190,c),
(884,202,o),
(887,217,o),
(887,234,c),
(887,261,o),
(881,282,o),
(869,297,c),
(857,313,o),
(841,320,o),
(822,320,c),
(803,320,o),
(788,313,o),
(776,298,c),
(765,284,o),
(759,263,o),
(759,237,c)
);
},
{
closed = 1;
nodes = (
(952,127,l),
(952,105,o),
(950,86,o),
(945,70,c),
(940,54,o),
(933,41,o),
(922,31,c),
(912,20,o),
(898,13,o),
(881,8,c),
(865,3,o),
(844,0,o),
(819,0,c),
(796,0,o),
(775,3,o),
(757,10,c),
(739,16,o),
(725,24,o),
(715,35,c),
(705,45,o),
(701,55,o),
(701,66,c),
(701,74,o),
(703,81,o),
(709,86,c),
(714,91,o),
(721,94,o),
(729,94,c),
(739,94,o),
(747,89,o),
(755,81,c),
(758,76,o),
(762,72,o),
(766,67,c),
(769,63,o),
(774,59,o),
(778,56,c),
(783,53,o),
(789,50,o),
(795,49,c),
(802,47,o),
(809,46,o),
(818,46,c),
(835,46,o),
(848,49,o),
(858,54,c),
(867,58,o),
(874,65,o),
(878,74,c),
(882,82,o),
(884,92,o),
(884,101,c),
(885,111,o),
(886,127,o),
(886,149,c),
(876,135,o),
(864,124,o),
(850,116,c),
(837,109,o),
(821,105,o),
(802,105,c),
(780,105,o),
(761,111,o),
(744,122,c),
(727,134,o),
(714,149,o),
(705,170,c),
(697,190,o),
(692,214,o),
(692,241,c),
(692,261,o),
(695,279,o),
(700,295,c),
(706,311,o),
(713,325,o),
(724,336,c),
(734,347,o),
(745,355,o),
(758,361,c),
(772,367,o),
(786,369,o),
(802,369,c),
(821,369,o),
(837,366,o),
(851,359,c),
(865,351,o),
(878,340,o),
(890,325,c),
(890,334,l),
(890,345,o),
(892,354,o),
(898,360,c),
(904,367,o),
(911,370,o),
(920,370,c),
(933,370,o),
(941,366,o),
(946,357,c),
(950,349,o),
(952,337,o),
(952,321,c)
);
},
{
closed = 1;
nodes = (
(1171,233,l),
(1161,229,o),
(1147,226,o),
(1128,222,c),
(1110,218,o),
(1097,215,o),
(1090,213,c),
(1083,211,o),
(1076,207,o),
(1069,202,c),
(1063,196,o),
(1059,189,o),
(1059,179,c),
(1059,169,o),
(1063,160,o),
(1071,153,c),
(1079,146,o),
(1089,143,o),
(1101,143,c),
(1114,143,o),
(1126,146,o),
(1137,151,c),
(1149,157,o),
(1157,165,o),
(1162,174,c),
(1168,184,o),
(1171,200,o),
(1171,223,c)
);
},
{
closed = 1;
nodes = (
(1159,124,o),
(1144,115,o),
(1129,108,c),
(1114,102,o),
(1097,99,o),
(1078,99,c),
(1061,99,o),
(1046,102,o),
(1033,109,c),
(1020,116,o),
(1010,125,o),
(1003,137,c),
(996,148,o),
(993,161,o),
(993,174,c),
(993,192,o),
(998,208,o),
(1010,221,c),
(1021,234,o),
(1037,242,o),
(1058,247,c),
(1062,248,o),
(1072,250,o),
(1089,253,c),
(1106,257,o),
(1120,260,o),
(1132,263,c),
(1144,265,o),
(1157,269,o),
(1171,273,c),
(1170,291,o),
(1167,303,o),
(1160,312,c),
(1154,320,o),
(1141,324,o),
(1121,324,c),
(1105,324,o),
(1092,322,o),
(1083,317,c),
(1075,312,o),
(1067,305,o),
(1061,296,c),
(1055,286,o),
(1051,280,o),
(1048,277,c),
(1046,274,o),
(1040,273,o),
(1032,273,c),
(1025,273,o),
(1018,275,o),
(1013,280,c),
(1007,285,o),
(1005,291,o),
(1005,298,c),
(1005,310,o),
(1009,321,o),
(1017,332,c),
(1025,343,o),
(1038,353,o),
(1056,360,c),
(1073,367,o),
(1095,370,o),
(1121,370,c),
(1151,370,o),
(1174,367,o),
(1191,360,c),
(1207,353,o),
(1219,342,o),
(1226,327,c),
(1233,312,o),
(1236,292,o),
(1236,268,c),
(1236,252,o),
(1236,239,o),
(1236,228,c),
(1236,217,o),
(1236,205,o),
(1236,191,c),
(1236,179,o),
(1238,166,o),
(1242,152,c),
(1246,139,o),
(1248,130,o),
(1248,126,c),
(1248,119,o),
(1245,113,o),
(1239,107,c),
(1232,102,o),
(1225,99,o),
(1217,99,c),
(1210,99,o),
(1203,102,o),
(1197,109,c),
(1190,115,o),
(1183,124,o),
(1175,137,c)
);
},
{
closed = 1;
nodes = (
(1303,364,l),
(1303,404,l),
(1303,415,o),
(1303,423,o),
(1304,429,c),
(1304,435,o),
(1306,441,o),
(1308,445,c),
(1311,450,o),
(1315,453,o),
(1319,456,c),
(1324,459,o),
(1330,461,o),
(1336,461,c),
(1344,461,o),
(1352,457,o),
(1359,451,c),
(1363,447,o),
(1366,442,o),
(1367,435,c),
(1369,429,o),
(1369,421,o),
(1369,409,c),
(1369,364,l),
(1394,364,l),
(1403,364,o),
(1410,362,o),
(1415,357,c),
(1420,353,o),
(1423,347,o),
(1423,340,c),
(1423,331,o),
(1419,325,o),
(1412,321,c),
(1405,318,o),
(1395,316,o),
(1382,316,c),
(1369,316,l),
(1369,193,l),
(1369,183,o),
(1370,175,o),
(1370,169,c),
(1371,164,o),
(1373,159,o),
(1376,156,c),
(1379,152,o),
(1385,150,o),
(1392,150,c),
(1396,150,o),
(1401,151,o),
(1408,153,c),
(1414,154,o),
(1420,155,o),
(1423,155,c),
(1429,155,o),
(1433,152,o),
(1438,148,c),
(1442,144,o),
(1444,138,o),
(1444,132,c),
(1444,121,o),
(1438,113,o),
(1427,107,c),
(1415,102,o),
(1398,99,o),
(1376,99,c),
(1355,99,o),
(1340,102,o),
(1329,109,c),
(1318,116,o),
(1311,126,o),
(1308,138,c),
(1304,151,o),
(1303,167,o),
(1303,188,c),
(1303,316,l),
(1294,316,l),
(1284,316,o),
(1277,318,o),
(1272,323,c),
(1267,327,o),
(1264,333,o),
(1264,340,c),
(1264,347,o),
(1267,353,o),
(1272,357,c),
(1278,362,o),
(1285,364,o),
(1295,364,c)
);
},
{
closed = 1;
nodes = (
(1535,139,l),
(1535,126,o),
(1532,116,o),
(1526,109,c),
(1519,102,o),
(1511,99,o),
(1502,99,c),
(1492,99,o),
(1484,102,o),
(1478,109,c),
(1472,116,o),
(1469,126,o),
(1469,139,c),
(1469,330,l),
(1469,343,o),
(1472,353,o),
(1478,360,c),
(1484,367,o),
(1492,370,o),
(1502,370,c),
(1511,370,o),
(1519,367,o),
(1526,360,c),
(1532,353,o),
(1535,344,o),
(1535,332,c)
);
},
{
closed = 1;
nodes = (
(1493,401,o),
(1485,404,o),
(1479,409,c),
(1472,415,o),
(1469,423,o),
(1469,434,c),
(1469,443,o),
(1472,451,o),
(1479,457,c),
(1486,463,o),
(1493,466,o),
(1502,466,c),
(1511,466,o),
(1519,463,o),
(1525,458,c),
(1532,452,o),
(1535,444,o),
(1535,434,c),
(1535,423,o),
(1532,415,o),
(1526,410,c),
(1519,404,o),
(1511,401,o),
(1502,401,c)
);
},
{
closed = 1;
nodes = (
(1705,177,l),
(1763,335,l),
(1768,348,o),
(1772,357,o),
(1777,362,c),
(1781,367,o),
(1788,370,o),
(1797,370,c),
(1805,370,o),
(1812,367,o),
(1818,361,c),
(1824,356,o),
(1827,349,o),
(1827,342,c),
(1827,339,o),
(1827,335,o),
(1826,331,c),
(1825,327,o),
(1823,324,o),
(1822,320,c),
(1821,317,o),
(1819,313,o),
(1817,309,c),
(1753,150,l),
(1752,145,o),
(1749,140,o),
(1746,133,c),
(1744,126,o),
(1740,120,o),
(1737,115,c),
(1733,110,o),
(1729,106,o),
(1724,103,c),
(1719,100,o),
(1713,99,o),
(1705,99,c),
(1696,99,o),
(1688,101,o),
(1683,105,c),
(1677,110,o),
(1673,114,o),
(1670,120,c),
(1668,125,o),
(1663,135,o),
(1657,150,c),
(1593,307,l),
(1592,311,o),
(1590,315,o),
(1589,319,c),
(1587,323,o),
(1586,327,o),
(1585,331,c),
(1584,335,o),
(1583,338,o),
(1583,341,c),
(1583,346,o),
(1585,350,o),
(1587,355,c),
(1590,359,o),
(1594,363,o),
(1599,366,c),
(1604,369,o),
(1609,370,o),
(1615,370,c),
(1626,370,o),
(1633,367,o),
(1637,360,c),
(1642,354,o),
(1646,343,o),
(1651,328,c)
);
},
{
closed = 1;
nodes = (
(2045,256,l),
(2043,279,o),
(2037,296,o),
(2027,307,c),
(2016,318,o),
(2002,324,o),
(1985,324,c),
(1968,324,o),
(1954,318,o),
(1944,307,c),
(1933,295,o),
(1927,278,o),
(1924,256,c)
);
},
{
closed = 1;
nodes = (
(1924,218,l),
(1924,203,o),
(1927,190,o),
(1933,178,c),
(1939,166,o),
(1947,158,o),
(1957,152,c),
(1967,146,o),
(1978,143,o),
(1990,143,c),
(1998,143,o),
(2005,144,o),
(2012,146,c),
(2018,148,o),
(2024,151,o),
(2031,155,c),
(2037,159,o),
(2043,163,o),
(2048,168,c),
(2053,172,o),
(2060,178,o),
(2068,186,c),
(2071,189,o),
(2076,190,o),
(2083,190,c),
(2090,190,o),
(2095,189,o),
(2099,185,c),
(2104,181,o),
(2106,176,o),
(2106,169,c),
(2106,163,o),
(2103,156,o),
(2099,148,c),
(2094,140,o),
(2087,132,o),
(2077,125,c),
(2068,117,o),
(2056,111,o),
(2041,106,c),
(2027,101,o),
(2010,99,o),
(1992,99,c),
(1949,99,o),
(1916,111,o),
(1892,136,c),
(1868,160,o),
(1856,193,o),
(1856,235,c),
(1856,255,o),
(1859,273,o),
(1865,290,c),
(1871,307,o),
(1879,321,o),
(1891,333,c),
(1902,345,o),
(1916,354,o),
(1932,361,c),
(1948,367,o),
(1967,370,o),
(1987,370,c),
(2013,370,o),
(2035,365,o),
(2054,354,c),
(2072,343,o),
(2086,329,o),
(2096,311,c),
(2105,294,o),
(2110,276,o),
(2110,258,c),
(2110,241,o),
(2105,230,o),
(2095,226,c),
(2086,221,o),
(2072,218,o),
(2055,218,c)
);
}
);
width = 2222;
}
);
unicode = 989453;
},
{
glyphname = "ilo-sp";
lastChange = "2024-01-31 22:47:45 +0000";
layers = (
{
layerId = m01;
shapes = (
{
closed = 1;
nodes = (
(239,352,o),
(206,322,o),
(180,280,c),
(165,256,o),
(157,231,o),
(157,215,c),
(157,206,o),
(159,199,o),
(164,199,c),
(180,199,o),
(204,227,o),
(227,271,c),
(254,322,o),
(263,351,o),
(253,352,c)
);
},
{
closed = 1;
nodes = (
(256,225,o),
(253,214,o),
(253,206,c),
(253,199,o),
(255,195,o),
(260,195,c),
(277,195,o),
(302,228,o),
(319,261,c),
(324,271,o),
(330,270,o),
(335,261,c),
(337,257,o),
(339,243,o),
(333,229,c),
(319,202,o),
(288,176,o),
(259,176,c),
(235,176,o),
(218,184,o),
(214,206,c),
(199,190,o),
(179,177,o),
(157,177,c),
(128,177,o),
(112,199,o),
(112,228,c),
(112,249,o),
(121,277,o),
(139,302,c),
(178,359,o),
(219,382,o),
(245,382,c),
(262,382,o),
(273,375,o),
(277,362,c),
(302,409,o),
(335,466,o),
(351,489,c),
(360,502,o),
(367,501,o),
(372,489,c),
(375,483,o),
(377,476,o),
(377,469,c),
(377,456,o),
(370,436,o),
(357,413,c),
(328,358,o),
(286,288,o),
(262,238,c)
);
},
{
closed = 1;
nodes = (
(625,347,o),
(621,350,o),
(618,350,c),
(615,350,o),
(610,346,o),
(610,338,c),
(610,329,o),
(613,316,o),
(618,310,c),
(623,321,o),
(625,333,o),
(625,340,c)
);
},
{
closed = 1;
nodes = (
(555,202,o),
(575,221,o),
(594,255,c),
(601,268,o),
(607,280,o),
(610,291,c),
(594,301,o),
(584,314,o),
(580,331,c),
(569,321,o),
(560,309,o),
(551,294,c),
(538,270,o),
(530,242,o),
(530,223,c),
(530,208,o),
(535,202,o),
(542,202,c)
);
},
{
closed = 1;
nodes = (
(454,347,o),
(450,350,o),
(447,350,c),
(444,350,o),
(439,346,o),
(439,338,c),
(439,329,o),
(442,316,o),
(447,310,c),
(452,321,o),
(454,333,o),
(454,340,c)
);
},
{
closed = 1;
nodes = (
(384,202,o),
(404,221,o),
(423,255,c),
(430,268,o),
(436,280,o),
(439,291,c),
(423,301,o),
(413,314,o),
(409,331,c),
(398,321,o),
(389,309,o),
(380,294,c),
(367,270,o),
(359,242,o),
(359,223,c),
(359,208,o),
(364,202,o),
(371,202,c)
);
},
{
closed = 1;
nodes = (
(614,381,o),
(623,375,o),
(632,362,c),
(646,346,o),
(660,342,o),
(656,300,c),
(669,300,o),
(670,295,o),
(666,290,c),
(662,286,o),
(658,284,o),
(653,283,c),
(642,242,o),
(610,193,o),
(572,180,c),
(568,178,o),
(562,177,o),
(554,177,c),
(538,177,o),
(519,184,o),
(505,202,c),
(496,215,o),
(491,230,o),
(491,246,c),
(491,260,o),
(494,271,o),
(499,286,c),
(494,285,o),
(487,284,o),
(482,283,c),
(471,242,o),
(439,193,o),
(401,180,c),
(397,178,o),
(391,177,o),
(383,177,c),
(367,177,o),
(348,184,o),
(334,202,c),
(325,215,o),
(320,230,o),
(320,246,c),
(320,268,o),
(328,292,o),
(341,316,c),
(364,356,o),
(395,381,o),
(428,381,c),
(443,381,o),
(452,375,o),
(461,362,c),
(475,346,o),
(488,342,o),
(485,305,c),
(501,310,o),
(517,325,o),
(528,340,c),
(549,361,o),
(569,381,o),
(599,381,c)
);
},
{
closed = 1;
nodes = (
(758,176,o),
(743,193,o),
(743,219,c),
(743,250,o),
(768,294,o),
(787,323,c),
(796,340,o),
(804,352,o),
(800,352,c),
(796,352,o),
(748,320,o),
(722,277,c),
(705,249,o),
(687,215,o),
(675,185,c),
(671,176,o),
(663,174,o),
(657,182,c),
(649,191,o),
(642,203,o),
(655,236,c),
(675,289,o),
(774,456,o),
(814,508,c),
(822,518,o),
(830,516,o),
(834,506,c),
(837,501,o),
(838,494,o),
(838,487,c),
(838,474,o),
(832,455,o),
(820,434,c),
(810,418,o),
(779,371,o),
(774,364,c),
(789,375,o),
(807,381,o),
(816,381,c),
(831,381,o),
(845,366,o),
(845,346,c),
(845,339,o),
(844,332,o),
(840,325,c),
(812,276,o),
(800,255,o),
(794,243,c),
(790,232,o),
(788,222,o),
(788,214,c),
(788,203,o),
(790,197,o),
(797,197,c),
(815,197,o),
(841,232,o),
(856,263,c),
(860,270,o),
(868,271,o),
(872,263,c),
(874,257,o),
(878,245,o),
(870,230,c),
(856,201,o),
(823,176,o),
(791,176,c)
);
},
{
closed = 1;
nodes = (
(969,432,o),
(982,414,o),
(982,399,c),
(982,386,o),
(975,374,o),
(962,374,c),
(946,374,o),
(933,389,o),
(933,405,c),
(933,419,o),
(943,432,o),
(955,432,c)
);
},
{
closed = 1;
nodes = (
(860,177,o),
(847,194,o),
(847,219,c),
(847,229,o),
(849,239,o),
(853,252,c),
(865,287,o),
(897,345,o),
(916,371,c),
(923,381,o),
(929,382,o),
(936,375,c),
(945,365,o),
(949,343,o),
(936,318,c),
(927,297,o),
(904,259,o),
(895,239,c),
(891,228,o),
(888,217,o),
(888,209,c),
(888,201,o),
(890,197,o),
(896,197,c),
(916,197,o),
(942,230,o),
(957,264,c),
(961,273,o),
(968,272,o),
(972,263,c),
(977,255,o),
(976,242,o),
(970,229,c),
(955,198,o),
(920,177,o),
(891,177,c)
);
},
{
closed = 1;
nodes = (
(1117,334,o),
(1109,315,o),
(1100,296,c),
(1096,288,o),
(1093,281,o),
(1091,275,c),
(1087,266,o),
(1083,265,o),
(1073,270,c),
(1064,275,o),
(1055,285,o),
(1055,298,c),
(1055,305,o),
(1058,315,o),
(1067,335,c),
(1072,345,o),
(1075,354,o),
(1073,356,c),
(1067,361,o),
(1035,329,o),
(1015,288,c),
(1005,268,o),
(1000,247,o),
(1000,232,c),
(1000,210,o),
(1009,197,o),
(1022,196,c),
(1060,196,o),
(1094,234,o),
(1114,264,c),
(1119,272,o),
(1126,274,o),
(1129,265,c),
(1132,259,o),
(1132,246,o),
(1123,232,c),
(1104,202,o),
(1063,177,o),
(1024,177,c),
(978,176,o),
(953,206,o),
(953,246,c),
(953,264,o),
(958,284,o),
(968,304,c),
(994,355,o),
(1033,382,o),
(1062,382,c),
(1081,382,o),
(1102,365,o),
(1110,350,c)
);
},
{
closed = 1;
nodes = (
(1201,332,o),
(1187,314,o),
(1172,289,c),
(1187,294,o),
(1222,310,o),
(1238,323,c),
(1258,340,o),
(1267,356,o),
(1263,363,c),
(1259,369,o),
(1241,363,o),
(1218,345,c)
);
},
{
closed = 1;
nodes = (
(1226,381,o),
(1235,384,o),
(1243,387,c),
(1266,395,o),
(1279,387,o),
(1290,364,c),
(1294,357,o),
(1296,349,o),
(1296,340,c),
(1296,328,o),
(1291,316,o),
(1279,304,c),
(1263,288,o),
(1242,274,o),
(1213,264,c),
(1215,227,o),
(1227,199,o),
(1242,199,c),
(1259,199,o),
(1286,234,o),
(1300,263,c),
(1306,275,o),
(1313,276,o),
(1317,264,c),
(1320,257,o),
(1319,245,o),
(1311,232,c),
(1302,214,o),
(1276,178,o),
(1234,179,c),
(1197,179,o),
(1167,208,o),
(1167,278,c),
(1153,254,o),
(1140,224,o),
(1124,186,c),
(1120,179,o),
(1112,177,o),
(1106,184,c),
(1101,190,o),
(1098,197,o),
(1098,207,c),
(1098,215,o),
(1100,226,o),
(1105,241,c),
(1127,305,o),
(1199,446,o),
(1243,506,c),
(1251,516,o),
(1259,516,o),
(1265,506,c),
(1268,500,o),
(1270,493,o),
(1270,486,c),
(1270,467,o),
(1247,429,o),
(1217,374,c)
);
},
{
closed = 1;
nodes = (
(1354,280,o),
(1358,279,o),
(1361,279,c),
(1373,279,o),
(1389,294,o),
(1399,307,c),
(1414,327,o),
(1424,350,o),
(1419,355,c),
(1411,361,o),
(1374,330,o),
(1350,282,c)
);
},
{
closed = 1;
nodes = (
(1367,252,o),
(1355,256,o),
(1343,263,c),
(1340,253,o),
(1339,243,o),
(1339,234,c),
(1339,212,o),
(1348,196,o),
(1363,196,c),
(1401,196,o),
(1434,233,o),
(1455,264,c),
(1460,272,o),
(1467,273,o),
(1471,263,c),
(1472,259,o),
(1473,244,o),
(1464,231,c),
(1443,200,o),
(1403,177,o),
(1364,176,c),
(1317,176,o),
(1292,206,o),
(1292,246,c),
(1292,264,o),
(1297,284,o),
(1307,304,c),
(1333,357,o),
(1374,383,o),
(1403,383,c),
(1410,383,o),
(1415,382,o),
(1420,379,c),
(1434,371,o),
(1444,363,o),
(1451,353,c),
(1454,349,o),
(1456,341,o),
(1456,335,c),
(1456,305,o),
(1423,252,o),
(1379,252,c)
);
},
{
closed = 1;
nodes = (
(1432,61,o),
(1429,40,o),
(1434,36,c),
(1437,33,o),
(1448,47,o),
(1462,72,c),
(1472,90,o),
(1484,115,o),
(1496,142,c),
(1472,125,o),
(1455,104,o),
(1445,84,c)
);
},
{
closed = 1;
nodes = (
(1628,203,o),
(1595,184,o),
(1554,167,c),
(1527,101,o),
(1493,21,o),
(1449,5,c),
(1438,0,o),
(1427,0,o),
(1415,16,c),
(1408,27,o),
(1400,42,o),
(1400,58,c),
(1400,64,o),
(1402,72,o),
(1405,81,c),
(1420,124,o),
(1461,155,o),
(1509,174,c),
(1517,192,l),
(1504,182,o),
(1491,178,o),
(1476,178,c),
(1451,178,o),
(1440,197,o),
(1440,218,c),
(1440,228,o),
(1442,240,o),
(1446,253,c),
(1458,284,o),
(1482,335,o),
(1513,377,c),
(1520,386,o),
(1527,386,o),
(1533,378,c),
(1538,371,o),
(1542,362,o),
(1542,354,c),
(1542,342,o),
(1536,327,o),
(1525,309,c),
(1508,282,o),
(1497,261,o),
(1488,238,c),
(1481,220,o),
(1476,200,o),
(1489,200,c),
(1502,200,o),
(1525,229,o),
(1549,271,c),
(1583,327,o),
(1596,358,o),
(1608,376,c),
(1615,385,o),
(1622,386,o),
(1627,380,c),
(1635,373,o),
(1637,365,o),
(1637,355,c),
(1637,345,o),
(1634,334,o),
(1628,321,c),
(1613,293,o),
(1587,245,o),
(1567,197,c),
(1597,216,o),
(1623,241,o),
(1639,264,c),
(1646,273,o),
(1653,274,o),
(1655,267,c),
(1658,259,o),
(1657,246,o),
(1648,233,c)
);
}
);
width = 1769;
}
);
unicode = 989454;
},
{
glyphname = "kepeken-sp";
lastChange = "2024-01-31 22:46:18 +0000";
layers = (
{
layerId = m01;
shapes = (
{
closed = 1;
nodes = (
(337,268,o),
(338,252,o),
(338,230,c),
(338,208,o),
(338,191,o),
(338,181,c),
(338,177,o),
(338,172,o),
(339,165,c),
(339,158,o),
(340,153,o),
(340,150,c),
(340,141,o),
(336,133,o),
(330,127,c),
(323,121,o),
(315,119,o),
(306,119,c),
(292,119,o),
(282,125,o),
(276,137,c),
(255,129,o),
(234,125,o),
(211,125,c),
(188,125,o),
(169,130,o),
(153,140,c),
(135,151,o),
(125,167,o),
(121,189,c),
(115,229,o),
(112,265,o),
(112,297,c),
(112,318,o),
(114,342,o),
(119,369,c),
(122,388,o),
(133,397,o),
(152,397,c),
(161,397,o),
(169,394,o),
(176,388,c),
(183,382,o),
(186,375,o),
(186,366,c),
(186,358,o),
(185,347,o),
(183,332,c),
(180,317,o),
(179,305,o),
(179,297,c),
(179,275,o),
(180,255,o),
(181,238,c),
(183,221,o),
(185,207,o),
(188,195,c),
(192,194,o),
(196,192,o),
(200,191,c),
(204,190,o),
(208,190,o),
(211,190,c),
(229,190,o),
(249,192,o),
(271,198,c),
(271,210,o),
(271,224,o),
(271,240,c),
(270,259,o),
(270,273,o),
(270,281,c),
(270,315,o),
(272,344,o),
(275,368,c),
(277,387,o),
(288,397,o),
(308,397,c),
(318,397,o),
(326,394,o),
(333,388,c),
(339,382,o),
(343,374,o),
(342,365,c),
(339,303,o),
(337,274,o),
(337,279,c)
);
},
{
closed = 1;
nodes = (
(539,317,o),
(530,323,o),
(526,337,c),
(520,338,o),
(513,339,o),
(506,339,c),
(467,339,o),
(448,333,o),
(448,323,c),
(448,316,o),
(459,308,o),
(483,297,c),
(515,282,o),
(537,271,o),
(548,262,c),
(572,245,o),
(584,226,o),
(584,204,c),
(584,176,o),
(571,155,o),
(545,141,c),
(524,129,o),
(498,123,o),
(467,123,c),
(446,123,o),
(426,127,o),
(408,133,c),
(384,143,o),
(371,156,o),
(371,174,c),
(371,190,o),
(381,198,o),
(400,198,c),
(408,198,o),
(419,196,o),
(433,191,c),
(447,186,o),
(458,184,o),
(466,184,c),
(499,184,o),
(515,191,o),
(515,204,c),
(515,212,o),
(504,221,o),
(481,232,c),
(448,246,o),
(426,257,o),
(417,264,c),
(394,280,o),
(382,299,o),
(382,322,c),
(382,355,o),
(400,377,o),
(434,389,c),
(455,395,o),
(485,399,o),
(527,399,c),
(543,399,o),
(555,396,o),
(563,392,c),
(574,386,o),
(579,376,o),
(579,361,c),
(579,331,o),
(571,317,o),
(556,317,c)
);
},
{
closed = 1;
nodes = (
(672,431,o),
(663,435,o),
(656,442,c),
(648,449,o),
(644,458,o),
(644,468,c),
(644,478,o),
(648,486,o),
(656,493,c),
(663,500,o),
(672,504,o),
(683,504,c),
(693,504,o),
(702,500,o),
(710,493,c),
(717,486,o),
(721,478,o),
(721,468,c),
(721,458,o),
(717,449,o),
(710,442,c),
(702,435,o),
(693,431,o),
(683,431,c)
);
},
{
closed = 1;
nodes = (
(703,243,o),
(704,228,o),
(704,208,c),
(705,187,o),
(705,172,o),
(705,163,c),
(705,154,o),
(702,146,o),
(696,140,c),
(689,134,o),
(681,131,o),
(671,131,c),
(662,131,o),
(654,134,o),
(647,140,c),
(641,146,o),
(638,154,o),
(638,163,c),
(638,172,o),
(637,187,o),
(637,208,c),
(636,228,o),
(636,243,o),
(636,253,c),
(636,267,o),
(637,285,o),
(639,307,c),
(640,329,o),
(641,347,o),
(641,361,c),
(641,371,o),
(644,379,o),
(650,385,c),
(657,391,o),
(665,394,o),
(675,394,c),
(684,394,o),
(692,391,o),
(699,385,c),
(705,379,o),
(708,371,o),
(708,361,c),
(708,347,o),
(708,329,o),
(706,307,c),
(704,285,o),
(703,267,o),
(703,253,c)
);
},
{
closed = 1;
nodes = (
(940,121,o),
(928,131,o),
(926,150,c),
(924,167,o),
(922,184,o),
(919,201,c),
(917,219,o),
(916,236,o),
(916,251,c),
(916,256,o),
(916,263,o),
(916,273,c),
(917,283,o),
(917,291,o),
(917,295,c),
(917,296,o),
(917,299,o),
(918,303,c),
(918,308,o),
(918,312,o),
(918,315,c),
(918,328,o),
(915,335,o),
(909,335,c),
(895,335,o),
(881,326,o),
(867,308,c),
(854,290,o),
(844,268,o),
(836,240,c),
(836,235,o),
(835,227,o),
(834,218,c),
(833,210,o),
(833,203,o),
(833,196,c),
(833,191,o),
(832,184,o),
(831,175,c),
(830,165,o),
(829,158,o),
(829,154,c),
(829,144,o),
(826,136,o),
(820,130,c),
(813,124,o),
(805,121,o),
(795,121,c),
(786,121,o),
(778,124,o),
(771,130,c),
(765,136,o),
(762,144,o),
(762,154,c),
(762,158,o),
(761,165,o),
(760,175,c),
(759,184,o),
(759,191,o),
(759,196,c),
(759,211,o),
(760,234,o),
(762,262,c),
(765,290,o),
(766,312,o),
(766,328,c),
(766,333,o),
(765,341,o),
(765,351,c),
(764,360,o),
(764,368,o),
(764,373,c),
(764,382,o),
(767,390,o),
(774,396,c),
(780,402,o),
(789,405,o),
(798,405,c),
(820,405,o),
(831,392,o),
(832,366,c),
(833,364,l),
(856,388,o),
(881,400,o),
(908,400,c),
(939,400,o),
(960,387,o),
(972,361,c),
(979,344,o),
(983,318,o),
(983,284,c),
(983,266,l),
(983,259,o),
(983,253,o),
(983,250,c),
(983,238,o),
(985,221,o),
(988,201,c),
(992,181,o),
(993,165,o),
(993,152,c),
(993,143,o),
(990,136,o),
(984,130,c),
(977,124,o),
(969,121,o),
(960,121,c)
);
},
{
closed = 1;
nodes = (
(1133,332,o),
(1112,323,o),
(1096,305,c),
(1083,289,o),
(1076,268,o),
(1076,241,c),
(1076,222,o),
(1079,207,o),
(1087,198,c),
(1094,188,o),
(1105,183,o),
(1120,183,c),
(1133,183,o),
(1146,191,o),
(1160,206,c),
(1173,221,o),
(1180,235,o),
(1182,250,c),
(1185,265,o),
(1188,290,o),
(1192,323,c),
(1187,326,o),
(1181,328,o),
(1176,330,c),
(1171,332,o),
(1166,332,o),
(1160,332,c)
);
},
{
closed = 1;
nodes = (
(1248,245,o),
(1244,205,o),
(1243,162,c),
(1241,110,o),
(1233,72,o),
(1217,48,c),
(1195,16,o),
(1158,0,o),
(1103,0,c),
(1040,0,o),
(1008,13,o),
(1008,38,c),
(1008,47,o),
(1011,54,o),
(1017,60,c),
(1023,65,o),
(1030,68,o),
(1039,68,c),
(1047,68,o),
(1057,67,o),
(1071,64,c),
(1085,61,o),
(1097,60,o),
(1107,60,c),
(1132,60,o),
(1149,67,o),
(1161,82,c),
(1172,96,o),
(1179,119,o),
(1181,151,c),
(1172,143,o),
(1163,136,o),
(1152,132,c),
(1142,128,o),
(1131,126,o),
(1118,126,c),
(1086,126,o),
(1060,136,o),
(1039,157,c),
(1019,178,o),
(1009,205,o),
(1009,238,c),
(1009,282,o),
(1022,318,o),
(1049,346,c),
(1077,374,o),
(1115,388,o),
(1163,388,c),
(1178,388,o),
(1191,386,o),
(1202,382,c),
(1214,379,o),
(1222,373,o),
(1229,365,c),
(1250,363,o),
(1260,351,o),
(1260,329,c),
(1260,318,o),
(1259,303,o),
(1255,284,c)
);
}
);
width = 1372;
}
);
unicode = 989465;
},
{
glyphname = "li-sp";
lastChange = "2024-01-31 22:32:58 +0000";
layers = (
{
layerId = m01;
shapes = (
{
closed = 1;
nodes = (
(154,30,o),
(154,34,o),
(155,39,cs),
(162,126,o),
(165,216,o),
(165,305,cs),
(165,330,o),
(162,356,o),
(162,379,cs),
(162,392,o),
(163,404,o),
(165,416,cs),
(166,422,o),
(161,428,o),
(155,428,cs),
(150,428,o),
(146,424,o),
(145,420,cs),
(143,406,o),
(142,392,o),
(142,379,cs),
(142,354,o),
(145,328,o),
(145,305,cs),
(145,216,o),
(142,128,o),
(135,41,cs),
(134,36,o),
(134,32,o),
(133,29,cs),
(132,23,o),
(137,17,o),
(143,17,cs),
(148,17,o),
(152,20,o),
(153,25,cs)
);
},
{
closed = 1;
nodes = (
(137,546,o),
(137,547,o),
(137,546,cs),
(137,540,o),
(141,536,o),
(147,536,cs),
(153,536,o),
(157,540,o),
(157,546,cs),
(157,547,o),
(157,546,o),
(157,547,cs),
(157,553,o),
(153,557,o),
(147,557,cs),
(141,557,o),
(137,553,o),
(137,547,cs)
);
},
{
closed = 1;
nodes = (
(397,68,o),
(426,86,o),
(453,107,cs),
(474,125,o),
(531,163,o),
(532,203,c),
(532,203,o),
(532,204,o),
(532,204,c),
(532,263,o),
(382,341,o),
(382,395,cs),
(382,399,o),
(383,403,o),
(386,408,cs),
(392,418,o),
(405,423,o),
(418,433,cs),
(434,448,o),
(443,461,o),
(460,470,cs),
(463,472,o),
(465,475,o),
(465,479,cs),
(465,487,o),
(456,491,o),
(450,488,cs),
(429,477,o),
(418,462,o),
(404,449,cs),
(395,441,o),
(378,434,o),
(368,418,c),
(365,411,o),
(362,403,o),
(362,395,cs),
(362,329,o),
(512,251,o),
(512,204,c),
(512,204,o),
(512,203,o),
(512,203,c),
(511,174,o),
(462,141,o),
(441,123,cs),
(414,102,o),
(391,88,o),
(359,85,cs),
(354,85,o),
(350,80,o),
(350,75,cs),
(350,69,o),
(355,65,o),
(361,65,cs)
);
}
);
width = 600;
}
);
unicode = 989479;
},
{
glyphname = "linja-sp";
lastChange = "2024-01-31 22:32:09 +0000";
layers = (
{
layerId = m01;
shapes = (
{
closed = 1;
nodes = (
(160,335,o),
(162,342,o),
(164,349,cs),
(169,369,o),
(173,390,o),
(173,411,cs),
(173,423,o),
(172,437,o),
(169,449,cs),
(163,468,o),
(146,489,o),
(129,501,c),
(121,505,o),
(113,508,o),
(106,508,cs),
(56,508,o),
(45,403,o),
(42,384,cs),
(43,388,o),
(39,355,o),
(39,340,cs),
(39,331,o),
(40,323,o),
(50,323,cs),
(56,323,o),
(60,327,o),
(60,333,cs),
(60,339,o),
(56,343,o),
(50,343,cs),
(49,343,o),
(59,336,o),
(59,340,cs),
(59,352,o),
(62,377,o),
(62,383,c),
(65,406,o),
(76,488,o),
(106,488,cs),
(109,488,o),
(113,487,o),
(119,483,cs),
(132,475,o),
(145,458,o),
(149,443,cs),
(152,433,o),
(153,423,o),
(153,411,cs),
(153,392,o),
(149,373,o),
(144,355,cs),
(142,348,o),
(140,341,o),
(138,334,cs),
(137,328,o),
(142,321,o),
(148,321,cs),
(153,321,o),
(156,324,o),
(158,328,cs)
);
},
{
closed = 1;
nodes = (
(272,420,o),
(283,396,o),
(283,373,cs),
(283,349,o),
(273,334,o),
(256,334,cs),
(250,334,o),
(244,336,o),
(236,342,cs),
(229,347,o),
(225,359,o),
(225,375,cs),
(225,406,o),
(239,439,o),
(256,439,cs),
(262,439,o),
(266,443,o),
(266,449,cs),
(266,455,o),
(262,459,o),
(256,459,cs),
(223,459,o),
(205,410,o),
(205,375,cs),
(205,355,o),
(211,335,o),
(224,326,cs),
(234,318,o),
(246,314,o),
(256,314,cs),
(284,314,o),
(303,342,o),
(303,373,cs),
(303,401,o),
(288,433,o),
(253,457,cs),
(247,461,o),
(237,458,o),
(237,449,cs),
(237,446,o),
(239,442,o),
(241,441,cs)
);
},
{
closed = 1;
nodes = (
(370,440,o),
(391,426,o),
(370,441,c),
(394,420,o),
(440,405,o),
(440,376,cs),
(440,351,o),
(416,333,o),
(391,333,cs),
(381,333,o),
(374,335,o),
(368,341,cs),
(352,354,o),
(345,373,o),
(345,393,cs),
(345,416,o),
(354,431,o),
(378,431,cs),
(381,431,o),
(383,431,o),
(386,431,cs),
(392,431,o),
(396,435,o),
(396,441,cs),
(396,447,o),
(392,451,o),
(386,451,cs),
(383,451,o),
(381,451,o),
(378,451,cs),
(341,451,o),
(325,423,o),
(325,393,cs),
(325,369,o),
(335,342,o),
(354,325,cs),
(364,317,o),
(378,313,o),
(391,313,cs),
(424,313,o),
(460,340,o),
(460,376,cs),
(460,416,o),
(412,435,o),
(389,452,cs),
(390,451,o),
(384,456,o),
(383,456,c),
(378,459,o),
(369,455,o),
(369,447,cs),
(369,443,o),
(371,440,o),
(375,438,c)
);
},
{
closed = 1;
nodes = (
(170,86,o),
(155,79,o),
(131,79,cs),
(104,79,o),
(76,91,o),
(73,103,cs),
(73,104,o),
(73,105,o),
(73,106,cs),
(73,118,o),
(79,138,o),
(85,138,cs),
(101,137,o),
(115,125,o),
(126,113,cs),
(120,120,o),
(134,104,o),
(138,104,cs),
(143,104,o),
(149,108,o),
(149,115,cs),
(149,122,o),
(150,131,o),
(150,141,cs),
(150,190,o),
(138,238,o),
(138,284,cs),
(138,290,o),
(134,294,o),
(128,294,cs),
(122,294,o),
(118,290,o),
(118,284,cs),
(118,236,o),
(130,188,o),
(130,141,cs),
(130,133,o),
(129,124,o),
(129,115,cs),
(129,112,o),
(141,124,o),
(138,124,cs),
(137,124,o),
(138,128,o),
(137,131,c),
(125,143,o),
(106,157,o),
(87,158,cs),
(65,160,o),
(53,125,o),
(53,106,cs),
(53,104,o),
(53,103,o),
(53,101,cs),
(56,77,o),
(98,59,o),
(131,59,cs),
(160,59,o),
(190,73,o),
(190,113,cs),
(190,119,o),
(186,123,o),
(180,123,cs),
(174,123,o),
(170,119,o),
(170,113,cs)
);
},
{
closed = 1;
nodes = (
(228,78,o),
(239,113,o),
(243,150,cs),
(247,177,o),
(246,205,o),
(252,230,cs),
(253,236,o),
(248,242,o),
(242,242,cs),
(237,242,o),
(233,239,o),
(232,234,cs),
(226,207,o),
(227,179,o),
(223,152,cs),
(219,117,o),
(208,84,o),
(200,47,cs),
(199,41,o),
(204,35,o),
(210,35,cs),
(215,35,o),
(219,38,o),
(220,43,cs)
);
},
{
closed = 1;
nodes = (
(453,21,o),
(442,19,o),
(432,19,cs),
(378,19,o),
(318,51,o),
(318,101,cs),
(318,106,o),
(319,111,o),
(321,116,c),
(326,138,o),
(354,161,o),
(372,177,cs),
(391,194,o),
(415,217,o),
(439,219,cs),
(440,219,o),
(442,219,o),
(443,219,cs),
(464,219,o),
(487,190,o),
(487,164,cs),
(487,157,o),
(485,151,o),
(481,147,cs),
(459,124,o),
(361,98,o),
(313,98,cs),
(308,98,o),
(303,99,o),
(298,99,cs),
(292,99,o),
(288,95,o),
(288,89,cs),
(288,83,o),
(292,79,o),
(298,79,cs),
(301,79,o),
(306,78,o),
(313,78,cs),
(364,78,o),
(469,106,o),
(495,133,cs),
(503,141,o),
(507,153,o),
(507,164,cs),
(507,197,o),
(476,239,o),
(443,239,cs),
(442,239,o),
(440,239,o),
(439,239,cs),
(407,237,o),
(377,208,o),
(358,191,cs),
(342,177,o),
(308,150,o),
(301,122,cs),
(299,115,o),
(298,108,o),
(298,101,cs),
(298,38,o),
(372,-1,o),
(432,-1,cs),
(444,-1,o),
(457,1,o),
(467,5,cs),
(471,6,o),
(474,10,o),
(474,14,cs),
(474,23,o),
(466,25,o),
(461,23,cs)
);
}
);
width = 600;
}
);
unicode = 989481;
},
{
glyphname = "ma-sp";
lastChange = "2024-01-31 22:37:40 +0000";
layers = (
{
layerId = m01;
shapes = (
{
closed = 1;
nodes = (
(149,259,o),
(133,253,o),
(117,253,cs),
(109,253,o),
(100,254,o),
(91,257,c),
(90,257,o),
(90,257,o),
(90,257,c),
(85,262,o),
(47,276,o),
(47,290,cs),
(47,328,o),
(95,328,o),
(66,337,c),
(88,331,o),
(155,271,o),
(166,271,cs),
(174,271,o),
(179,278,o),
(179,286,cs),
(179,292,o),
(177,299,o),
(177,303,cs),
(177,319,o),
(177,349,o),
(178,362,cs),
(180,429,o),
(172,520,o),
(208,577,c),
(212,582,o),
(209,592,o),
(200,592,cs),
(196,592,o),
(193,590,o),
(192,587,c),
(152,526,o),
(160,429,o),
(158,364,cs),
(157,349,o),
(157,319,o),
(157,303,cs),
(157,297,o),
(159,290,o),
(159,286,cs),
(159,284,o),
(169,291,o),
(166,291,cs),
(165,291,o),
(98,349,o),
(72,357,cs),
(59,361,o),
(27,312,o),
(27,290,cs),
(27,276,o),
(38,265,o),
(48,257,c),
(50,257,o),
(51,257,o),
(53,257,c),
(76,240,o),
(98,233,o),
(117,233,cs),
(137,233,o),
(157,241,o),
(180,253,cs),
(183,255,o),
(185,258,o),
(185,262,cs),
(185,270,o),
(176,274,o),
(170,271,cs)
);
},
{
closed = 1;
nodes = (
(249,284,o),
(252,313,o),
(264,336,cs),
(267,342,o),
(263,351,o),
(255,351,cs),
(251,351,o),
(248,349,o),
(246,346,cs),
(232,319,o),
(229,288,o),
(222,260,cs),
(221,254,o),
(226,248,o),
(232,248,cs),
(237,248,o),
(241,251,o),
(242,256,cs)
);
},
{
closed = 1;
nodes = (
(258,410,o),
(260,406,o),
(262,402,cs),
(264,398,o),
(267,396,o),
(271,396,cs),
(279,396,o),
(283,405,o),
(280,410,cs),
(278,414,o),
(276,418,o),
(274,423,cs),
(273,426,o),
(269,429,o),
(265,429,cs),
(258,429,o),
(253,422,o),
(256,415,cs)
);
},
{
closed = 1;
nodes = (
(320,363,o),
(289,316,o),
(284,266,cs),
(283,260,o),
(288,255,o),
(294,255,cs),
(299,255,o),
(303,259,o),
(304,264,cs),
(309,308,o),
(333,345,o),
(377,349,cs),
(382,350,o),
(386,354,o),
(386,359,cs),
(386,365,o),
(381,370,o),
(375,369,cs)
);
},
{
closed = 1;
nodes = (
(479,248,o),
(465,250,o),
(460,255,cs),
(455,260,o),
(453,267,o),
(453,279,cs),
(453,323,o),
(489,392,o),
(508,413,cs),
(510,415,o),
(511,417,o),
(511,420,cs),
(511,426,o),
(507,430,o),
(501,430,cs),
(498,430,o),
(495,429,o),
(494,427,c),
(472,403,o),
(433,328,o),
(433,279,cs),
(433,264,o),
(437,250,o),
(446,241,cs),
(455,232,o),
(475,228,o),
(484,226,cs),
(490,225,o),
(496,230,o),
(496,236,cs),
(496,241,o),
(493,245,o),
(488,246,cs)
);
},
{
closed = 1;
nodes = (
(502,371,o),
(499,371,o),
(495,371,cs),
(485,371,o),
(474,372,o),
(463,372,cs),
(450,372,o),
(436,371,o),
(424,368,cs),
(419,367,o),
(416,363,o),
(416,358,cs),
(416,352,o),
(422,347,o),
(428,348,cs),
(440,351,o),
(450,352,o),
(463,352,cs),
(474,352,o),
(485,351,o),
(495,351,cs),
(499,351,o),
(504,351,o),
(509,352,cs),
(514,353,o),
(517,357,o),
(517,362,cs),
(517,368,o),
(511,373,o),
(505,372,cs)
);
}
);
width = 600;
}
);
unicode = 989488;
},
{
glyphname = "mi-sp";
lastChange = "2024-01-31 22:36:09 +0000";
layers = (
{
layerId = m01;
shapes = (
{
closed = 1;
nodes = (
(391,688,o),
(284,689,o),
(177,689,cs),
(145,689,o),
(114,689,o),
(82,689,cs),
(76,689,o),
(72,685,o),
(72,679,cs),
(72,673,o),
(76,669,o),
(82,669,cs),
(114,669,o),
(145,669,o),
(177,669,cs),
(284,669,o),
(391,668,o),
(498,663,cs),
(504,663,o),
(508,667,o),
(508,673,cs),
(508,679,o),
(504,683,o),
(498,683,cs)
);
},
{
closed = 1;
nodes = (
(301,23,o),
(328,105,o),
(333,190,cs),
(334,206,o),
(335,224,o),
(335,240,cs),
(335,330,o),
(320,417,o),
(313,507,cs),
(312,532,o),
(305,580,o),
(305,621,cs),
(305,647,o),
(308,669,o),
(315,681,cs),
(318,687,o),
(315,696,o),
(306,696,cs),
(302,696,o),
(299,694,o),
(297,691,cs),
(288,675,o),
(285,649,o),
(285,621,cs),
(285,578,o),
(292,530,o),
(293,505,cs),
(300,415,o),
(315,328,o),
(315,240,cs),
(315,224,o),
(314,208,o),
(313,192,cs),
(308,109,o),
(281,27,o),
(275,-59,cs),
(275,-65,o),
(279,-69,o),
(285,-69,cs),
(291,-69,o),
(295,-65,o),
(295,-59,cs)
);
},
{
closed = 1;
nodes = (
(443,56,o),
(431,57,o),
(419,57,cs),
(398,57,o),
(376,55,o),
(357,55,cs),
(313,55,o),
(269,54,o),
(225,54,cs),
(186,54,o),
(147,55,o),
(108,56,cs),
(102,56,o),
(98,52,o),
(98,46,cs),
(98,40,o),
(102,36,o),
(108,36,cs),
(147,35,o),
(186,34,o),
(225,34,cs),
(269,34,o),
(313,35,o),
(357,35,cs),
(376,35,o),
(398,37,o),
(419,37,cs),
(431,37,o),
(441,36,o),
(452,34,cs),
(458,33,o),
(464,38,o),
(464,44,cs),
(464,49,o),
(460,53,o),
(456,54,cs)
);
}
);
width = 600;
}
);
unicode = 989492;
},
{
glyphname = "nasin-sp";
lastChange = "2024-01-31 22:39:31 +0000";
layers = (
{
layerId = m01;
shapes = (
{
closed = 1;
nodes = (
(120,342,o),
(98,332,o),
(80,332,cs),
(74,332,o),
(70,333,o),
(66,336,cs),
(57,342,o),
(54,351,o),
(54,362,cs),
(54,379,o),
(62,392,o),
(78,393,c),
(78,403,l),
(79,403,o),
(79,403,o),
(80,403,c),
(100,393,o),
(113,368,o),
(123,349,cs),
(125,346,o),
(131,321,o),
(139,323,c),
(139,323,o),
(140,323,o),
(140,323,c),
(150,333,o),
(150,334,o),
(150,334,c),
(150,343,o),
(149,352,o),
(149,359,cs),
(149,373,o),
(149,381,o),
(149,386,cs),
(149,397,o),
(149,395,o),
(148,431,cs),
(148,463,o),
(146,494,o),
(146,525,cs),
(146,546,o),
(147,566,o),
(150,586,cs),
(151,591,o),
(146,597,o),
(140,597,cs),
(135,597,o),
(131,593,o),
(130,588,cs),
(127,568,o),
(126,546,o),
(126,525,cs),
(126,494,o),
(128,463,o),
(128,431,cs),
(129,395,o),
(129,395,o),
(129,386,cs),
(129,381,o),
(129,373,o),
(129,359,cs),
(129,350,o),
(130,341,o),
(130,334,c),
(130,334,o),
(130,333,o),
(130,333,c),
(144,345,o),
(137,343,o),
(139,343,c),
(148,341,o),
(145,350,o),
(141,357,cs),
(131,378,o),
(112,413,o),
(80,413,c),
(79,403,o),
(79,403,o),
(78,403,c),
(78,413,l),
(49,412,o),
(34,386,o),
(34,362,cs),
(34,347,o),
(40,330,o),
(54,320,cs),
(62,315,o),
(72,312,o),
(80,312,cs),
(102,312,o),
(124,322,o),
(140,322,cs),
(146,322,o),
(150,326,o),
(150,332,cs),
(150,338,o),
(146,342,o),
(140,342,cs)
);
},
{
closed = 1;
nodes = (
(212,401,o),
(213,401,o),
(215,401,cs),
(219,401,o),
(227,384,o),
(227,362,cs),
(227,342,o),
(222,330,o),
(205,330,cs),
(203,330,o),
(200,331,o),
(195,332,cs),
(179,336,o),
(175,341,o),
(175,350,cs),
(175,371,o),
(202,396,o),
(217,396,cs),
(218,396,o),
(218,396,o),
(218,396,c),
(223,393,o),
(232,397,o),
(232,405,cs),
(232,409,o),
(230,412,o),
(226,414,cs),
(224,415,o),
(220,416,o),
(217,416,cs),
(192,416,o),
(155,381,o),
(155,350,cs),
(155,334,o),
(166,318,o),
(191,312,cs),
(196,311,o),
(201,310,o),
(205,310,cs),
(237,310,o),
(247,337,o),
(247,362,cs),
(247,392,o),
(233,421,o),
(215,421,cs),
(213,421,o),
(212,421,o),
(211,421,cs),
(205,421,o),
(201,417,o),
(201,411,cs),
(201,405,o),
(205,401,o),
(211,401,cs)
);
},
{
closed = 1;
nodes = (
(317,318,o),
(316,318,o),
(313,318,cs),
(291,318,o),
(281,337,o),
(281,361,cs),
(281,384,o),
(291,404,o),
(311,411,c),
(317,416,o),
(309,411,o),
(313,411,cs),
(320,411,o),
(309,417,o),
(310,415,cs),
(312,411,o),
(315,409,o),
(319,409,cs),
(327,409,o),
(331,418,o),
(328,423,cs),
(325,430,o),
(319,431,o),
(313,431,cs),
(309,431,o),
(305,431,o),
(302,429,c),
(275,418,o),
(261,389,o),
(261,361,cs),
(261,330,o),
(278,298,o),
(313,298,cs),
(316,298,o),
(322,298,o),
(325,300,c),
(329,301,o),
(332,305,o),
(332,309,cs),
(332,318,o),
(324,320,o),
(319,318,c)
);
},
{
closed = 1;
nodes = (
(377,355,o),
(374,406,o),
(394,436,cs),
(398,442,o),
(395,452,o),
(386,452,cs),
(383,452,o),
(379,450,o),
(378,448,cs),
(354,412,o),
(357,355,o),
(356,317,cs),
(356,311,o),
(360,307,o),
(366,307,cs),
(372,307,o),
(376,311,o),
(376,317,cs)
);
},
{
closed = 1;
nodes = (
(373,395,o),
(342,403,o),
(322,391,cs),
(319,389,o),
(317,386,o),
(317,382,cs),
(317,373,o),
(326,370,o),
(332,373,cs),
(346,382,o),
(372,375,o),
(394,379,cs),
(399,380,o),
(402,384,o),
(402,389,cs),
(402,395,o),
(396,400,o),
(390,399,cs)
);
},
{
closed = 1;
nodes = (
(418,394,o),
(386,377,o),
(386,344,cs),
(386,338,o),
(387,330,o),
(391,323,cs),
(393,319,o),
(396,317,o),
(400,317,cs),
(408,317,o),
(412,326,o),
(409,331,cs),
(407,336,o),
(406,340,o),
(406,344,cs),
(406,364,o),
(425,374,o),
(447,376,cs),
(453,376,o),
(457,380,o),
(457,386,cs),
(457,392,o),
(453,396,o),
(447,396,cs)
);
},
{
closed = 1;
nodes = (
(464,339,o),
(473,359,o),
(483,381,cs),
(486,387,o),
(482,395,o),
(474,395,cs),
(470,395,o),
(466,393,o),
(465,389,c),
(455,367,o),
(444,345,o),
(442,317,cs),
(442,311,o),
(446,307,o),
(452,307,cs),
(458,307,o),
(462,311,o),
(462,317,cs)
);
},
{
closed = 1;
nodes = (
(467,429,o),
(467,428,o),
(470,424,cs),
(471,422,o),
(475,420,o),
(478,420,cs),
(487,420,o),
(490,430,o),
(486,436,cs),
(485,438,o),
(482,442,o),
(480,444,cs),
(478,446,o),
(476,447,o),
(473,447,cs),
(467,447,o),
(463,443,o),
(463,437,cs),
(463,434,o),
(464,432,o),
(466,430,cs)
);
},
{
closed = 1;
nodes = (
(563,310,o),
(553,333,o),
(543,350,cs),
(534,365,o),
(525,370,o),
(517,370,cs),
(496,370,o),
(485,339,o),
(472,318,cs),
(469,312,o),
(472,303,o),
(481,303,cs),
(485,303,o),
(488,305,o),
(490,308,cs),
(500,326,o),
(510,350,o),
(517,350,cs),
(519,350,o),
(520,349,o),
(525,340,cs),
(535,323,o),
(543,306,o),
(543,288,cs),
(543,282,o),
(547,278,o),
(553,278,cs),
(559,278,o),
(563,282,o),
(563,288,cs)
);
},
{
closed = 1;
nodes = (
(347,65,o),
(331,62,o),
(316,62,cs),
(281,62,o),
(253,72,o),
(234,106,cs),
(232,109,o),
(232,111,o),
(232,116,cs),
(232,117,o),
(232,118,o),
(232,119,cs),
(235,153,o),
(269,205,o),
(287,205,cs),
(306,205,o),
(342,172,o),
(342,149,cs),
(342,146,o),
(342,144,o),
(340,142,c),
(328,123,o),
(257,122,o),
(230,122,cs),
(224,122,o),
(220,118,o),
(220,112,cs),
(220,106,o),
(224,102,o),
(230,102,cs),
(257,102,o),
(339,102,o),
(358,132,c),
(360,138,o),
(362,144,o),
(362,149,cs),
(362,182,o),
(316,225,o),
(287,225,cs),
(256,225,o),
(215,160,o),
(212,119,cs),
(212,118,o),
(212,117,o),
(212,116,cs),
(212,108,o),
(214,101,o),
(218,96,c),
(240,55,o),
(278,42,o),
(316,42,cs),
(333,42,o),
(351,45,o),
(367,49,cs),
(372,50,o),
(375,54,o),
(375,59,cs),
(375,65,o),
(369,70,o),
(363,69,cs)
);
}
);
width = 600;
}
);
unicode = 989503;
},
{
glyphname = "ni-sp";
lastChange = "2024-01-31 22:32:46 +0000";
layers = (
{
layerId = m01;
shapes = (
{
closed = 1;
nodes = (
(187,125,o),
(182,122,o),
(175,122,cs),
(146,122,o),
(105,173,o),
(95,197,cs),
(79,237,o),
(74,283,o),
(74,329,cs),
(74,377,o),
(80,427,o),
(82,475,cs),
(82,477,o),
(82,479,o),
(82,481,cs),
(82,488,o),
(82,496,o),
(82,504,cs),
(82,513,o),
(82,520,o),
(84,526,cs),
(87,533,o),
(82,540,o),
(75,540,cs),
(71,540,o),
(67,537,o),
(66,534,cs),
(62,524,o),
(62,513,o),
(62,504,cs),
(62,496,o),
(62,488,o),
(62,481,cs),
(62,479,o),
(62,477,o),
(62,475,cs),
(60,429,o),
(54,379,o),
(54,329,cs),
(54,281,o),
(59,233,o),
(77,189,cs),
(88,162,o),
(135,102,o),
(175,102,cs),
(188,102,o),
(201,109,o),
(209,123,cs),
(213,129,o),
(210,138,o),
(201,138,cs),
(197,138,o),
(194,136,o),
(193,133,c)
);
},
{
closed = 1;
nodes = (
(125,421,o),
(124,421,o),
(121,421,cs),
(99,421,o),
(74,425,o),
(48,425,cs),
(39,425,o),
(28,425,o),
(18,423,cs),
(13,422,o),
(10,418,o),
(10,413,cs),
(10,407,o),
(16,402,o),
(22,403,cs),
(30,405,o),
(39,405,o),
(48,405,cs),
(72,405,o),
(97,401,o),
(121,401,cs),
(124,401,o),
(130,401,o),
(133,403,c),
(137,404,o),
(140,408,o),
(140,412,cs),
(140,421,o),
(132,423,o),
(127,421,c)
);
},
{
closed = 1;
nodes = (
(270,222,o),
(266,240,o),
(261,260,cs),
(249,305,o),
(233,329,o),
(212,329,cs),
(189,329,o),
(169,303,o),
(150,260,cs),
(142,243,o),
(139,221,o),
(130,208,c),
(132,207,o),
(147,201,o),
(147,203,cs),
(147,204,o),
(148,210,o),
(148,212,cs),
(148,218,o),
(148,224,o),
(148,230,cs),
(148,250,o),
(149,270,o),
(150,290,cs),
(152,341,o),
(161,392,o),
(164,444,cs),
(165,470,o),
(165,496,o),
(169,521,c),
(171,523,o),
(160,518,o),
(162,518,c),
(162,528,o),
(162,528,o),
(162,528,c),
(162,528,o),
(162,528,o),
(162,528,c),
(154,537,o),
(149,529,o),
(149,523,c),
(145,496,o),
(145,470,o),
(144,444,cs),
(141,394,o),
(132,343,o),
(130,290,cs),
(129,270,o),
(128,250,o),
(128,230,cs),
(128,224,o),
(128,218,o),
(128,212,cs),
(128,211,o),
(127,205,o),
(127,203,cs),
(127,192,o),
(138,187,o),
(146,196,c),
(157,212,o),
(162,237,o),
(168,252,cs),
(186,292,o),
(200,309,o),
(212,309,cs),
(221,309,o),
(231,296,o),
(241,256,cs),
(246,236,o),
(252,216,o),
(260,196,cs),
(261,193,o),
(265,190,o),
(269,190,cs),
(276,190,o),
(281,197,o),
(278,204,cs)
);
},
{
closed = 1;
nodes = (
(292,269,o),
(305,269,o),
(305,278,cs),
(305,299,o),
(307,329,o),
(308,331,c),
(310,371,o),
(306,423,o),
(318,461,cs),
(320,466,o),
(318,474,o),
(309,474,cs),
(305,474,o),
(301,471,o),
(300,467,cs),
(286,426,o),
(290,372,o),
(288,333,cs),
(287,326,o),
(285,297,o),
(285,278,cs),
(285,259,o),
(290,246,o),
(302,252,cs),
(306,254,o),
(308,257,o),
(308,261,cs),
(308,269,o),
(299,273,o),
(294,270,cs)
);
},
{
closed = 1;
nodes = (
(317,538,o),
(315,533,o),
(311,533,cs),
(317,533,o),
(321,537,o),
(321,543,cs),
(321,549,o),
(317,553,o),
(311,553,cs),
(303,553,o),
(299,548,o),
(297,541,cs),
(295,536,o),
(297,528,o),
(306,528,cs),
(310,528,o),
(314,531,o),
(315,535,c)
);
},
{
closed = 1;
nodes = (
(468,152,o),
(489,169,o),
(509,184,cs),
(564,225,o),
(586,255,o),
(586,280,cs),
(586,334,o),
(485,353,o),
(436,428,cs),
(429,440,o),
(426,449,o),
(426,458,cs),
(426,476,o),
(439,485,o),
(461,485,cs),
(472,485,o),
(482,483,o),
(492,477,cs),
(498,474,o),
(507,477,o),
(507,486,cs),
(507,490,o),
(505,493,o),
(502,495,cs),
(488,503,o),
(474,505,o),
(461,505,cs),
(432,505,o),
(406,487,o),
(406,458,cs),
(406,445,o),
(411,432,o),
(420,418,cs),
(473,335,o),
(566,318,o),
(566,280,cs),
(566,262,o),
(549,239,o),
(497,200,cs),
(477,185,o),
(458,170,o),
(435,160,cs),
(432,159,o),
(429,155,o),
(429,151,cs),
(429,144,o),
(436,139,o),
(443,142,cs)
);
}
);
width = 600;
}
);
unicode = 989505;
},
{
glyphname = "ona-sp";
lastChange = "2024-01-31 22:53:24 +0000";
layers = (
{
layerId = m01;
shapes = (
{
closed = 1;
nodes = (
(112,226,l),
(112,264,l),
(156,264,l),
(156,302,l),
(156,323,o),
(162,339,o),
(174,350,c),
(186,361,o),
(204,366,o),
(227,366,c),
(231,366,o),
(236,366,o),
(241,365,c),
(246,364,o),
(251,363,o),
(255,362,c),
(255,325,l),
(251,326,o),
(247,327,o),
(243,328,c),
(238,328,o),
(234,329,o),
(231,329,c),
(220,329,o),
(212,327,o),
(207,323,c),
(201,319,o),
(198,311,o),
(198,300,c),
(198,264,l),
(248,264,l),
(248,226,l),
(198,226,l),
(198,5,l),
(156,5,l),
(156,226,l)
);
},
{
closed = 1;
nodes = (
(446,139,l),
(441,135,o),
(434,132,o),
(425,130,c),
(416,128,o),
(407,127,o),
(398,125,c),
(388,124,o),
(379,123,o),
(369,121,c),
(359,120,o),
(351,117,o),
(343,114,c),
(335,111,o),
(329,106,o),
(324,100,c),
(320,94,o),
(317,85,o),
(317,75,c),
(317,68,o),
(319,62,o),
(321,57,c),
(324,52,o),
(328,48,o),
(332,45,c),
(337,43,o),
(342,40,o),
(348,39,c),
(354,38,o),
(360,37,o),
(367,37,c),
(381,37,o),
(393,39,o),
(403,43,c),
(413,47,o),
(421,51,o),
(428,57,c),
(434,63,o),
(439,69,o),
(442,76,c),
(445,83,o),
(446,89,o),
(446,95,c)
);
},
{
closed = 1;
nodes = (
(515,6,l),
(508,2,o),
(498,0,o),
(485,0,c),
(474,0,o),
(465,3,o),
(458,9,c),
(452,15,o),
(449,25,o),
(449,39,c),
(437,25,o),
(423,15,o),
(408,9,c),
(392,3,o),
(376,0,o),
(358,0,c),
(346,0,o),
(335,1,o),
(324,4,c),
(314,6,o),
(305,10,o),
(297,16,c),
(289,22,o),
(283,29,o),
(279,38,c),
(274,47,o),
(272,59,o),
(272,72,c),
(272,86,o),
(275,98,o),
(280,108,c),
(285,117,o),
(291,124,o),
(299,130,c),
(308,136,o),
(317,141,o),
(327,144,c),
(338,147,o),
(349,149,o),
(360,151,c),
(371,153,o),
(382,155,o),
(393,156,c),
(403,157,o),
(413,159,o),
(421,161,c),
(429,163,o),
(435,167,o),
(440,171,c),
(444,175,o),
(447,181,o),
(447,189,c),
(447,198,o),
(445,206,o),
(441,212,c),
(438,217,o),
(433,222,o),
(428,225,c),
(422,228,o),
(416,230,o),
(409,231,c),
(403,232,o),
(396,232,o),
(389,232,c),
(371,232,o),
(356,229,o),
(344,222,c),
(332,215,o),
(326,202,o),
(325,183,c),
(282,183,l),
(283,199,o),
(286,213,o),
(292,224,c),
(298,235,o),
(306,243,o),
(316,250,c),
(326,257,o),
(338,262,o),
(350,265,c),
(363,268,o),
(377,270,o),
(392,270,c),
(403,270,o),
(415,269,o),
(426,267,c),
(438,265,o),
(448,262,o),
(458,257,c),
(467,252,o),
(474,244,o),
(480,235,c),
(486,226,o),
(489,214,o),
(489,199,c),
(489,66,l),
(489,56,o),
(489,49,o),
(490,44,c),
(492,39,o),
(495,37,o),
(502,37,c),
(506,37,o),
(510,38,o),
(515,39,c)
);
},
{
closed = 1;
nodes = (
(724,197,o),
(718,204,o),
(712,211,c),
(705,217,o),
(698,222,o),
(689,226,c),
(680,230,o),
(670,232,o),
(660,232,c),
(649,232,o),
(639,230,o),
(630,226,c),
(621,222,o),
(613,217,o),
(607,211,c),
(601,204,o),
(596,196,o),
(592,187,c),
(588,178,o),
(586,169,o),
(586,159,c),
(734,159,l),
(733,169,o),
(731,179,o),
(727,188,c)
);
},
{
closed = 1;
nodes = (
(718,7,o),
(694,0,o),
(665,0,c),
(644,0,o),
(626,3,o),
(611,10,c),
(596,16,o),
(583,26,o),
(573,38,c),
(562,50,o),
(555,64,o),
(549,81,c),
(544,97,o),
(541,115,o),
(541,135,c),
(541,155,o),
(544,173,o),
(550,189,c),
(556,205,o),
(564,220,o),
(575,232,c),
(586,244,o),
(599,253,o),
(613,260,c),
(628,266,o),
(644,270,o),
(662,270,c),
(685,270,o),
(704,265,o),
(719,255,c),
(735,246,o),
(747,234,o),
(756,219,c),
(765,204,o),
(771,188,o),
(775,171,c),
(778,154,o),
(780,137,o),
(779,122,c),
(586,122,l),
(585,110,o),
(587,99,o),
(590,89,c),
(593,79,o),
(597,70,o),
(604,62,c),
(611,54,o),
(619,48,o),
(630,44,c),
(640,39,o),
(652,37,o),
(666,37,c),
(684,37,o),
(699,41,o),
(710,49,c),
(722,57,o),
(729,70,o),
(733,87,c),
(775,87,l),
(769,58,o),
(757,36,o),
(738,22,c)
);
}
);
width = 891;
}
);
unicode = 989510;
},
{
glyphname = "pali-sp";
lastChange = "2024-01-31 22:35:22 +0000";
layers = (
{
layerId = m01;
shapes = (
{
closed = 1;
nodes = (
(137,411,o),
(144,379,o),
(144,345,cs),
(144,304,o),
(133,263,o),
(119,228,cs),
(112,214,o),
(90,170,o),
(71,170,cs),
(67,170,o),
(64,172,o),
(58,179,cs),
(56,181,o),
(53,183,o),
(50,183,cs),
(44,183,o),
(40,179,o),
(40,173,cs),
(40,171,o),
(41,169,o),
(42,167,c),
(51,156,o),
(61,150,o),
(71,150,cs),
(103,150,o),
(130,205,o),
(137,220,cs),
(153,257,o),
(164,302,o),
(164,345,cs),
(164,381,o),
(155,419,o),
(135,449,c),
(134,452,o),
(130,454,o),
(127,454,cs),
(118,454,o),
(115,444,o),
(119,439,cs)
);
},
{
closed = 1;
nodes = (
(120,551,o),
(124,542,o),
(124,531,cs),
(124,514,o),
(116,502,o),
(98,502,cs),
(94,502,o),
(90,503,o),
(85,505,cs),
(82,506,o),
(81,507,o),
(81,514,cs),
(81,528,o),
(87,541,o),
(95,541,cs),
(101,541,o),
(105,545,o),
(105,551,cs),
(105,557,o),
(101,561,o),
(95,561,cs),
(75,561,o),
(61,536,o),
(61,514,cs),
(61,502,o),
(67,490,o),
(77,487,c),
(84,483,o),
(92,482,o),
(98,482,cs),
(127,482,o),
(144,507,o),
(144,531,cs),
(144,547,o),
(137,563,o),
(124,574,cs),
(122,576,o),
(120,577,o),
(117,577,cs),
(111,577,o),
(107,573,o),
(107,567,cs),
(107,564,o),
(108,561,o),
(110,560,c)
);
},
{
closed = 1;
nodes = (
(260,333,o),
(274,359,o),
(287,328,cs),
(294,309,o),
(299,290,o),
(299,274,cs),
(299,247,o),
(289,232,o),
(255,231,cs),
(254,231,o),
(253,231,o),
(251,231,cs),
(205,231,o),
(186,238,o),
(186,260,cs),
(186,271,o),
(189,282,o),
(199,299,c),
(208,319,o),
(221,334,o),
(235,350,cs),
(237,352,o),
(238,354,o),
(238,357,cs),
(238,363,o),
(234,367,o),
(228,367,cs),
(225,367,o),
(222,366,o),
(221,364,c),
(205,346,o),
(192,329,o),
(181,309,cs),
(171,290,o),
(166,273,o),
(166,260,cs),
(166,223,o),
(200,211,o),
(251,211,cs),
(253,211,o),
(254,211,o),
(255,211,cs),
(301,212,o),
(319,240,o),
(319,274,cs),
(319,292,o),
(314,315,o),
(305,336,cs),
(287,380,o),
(259,365,o),
(249,376,c),
(248,378,o),
(245,379,o),
(242,379,cs),
(236,379,o),
(232,375,o),
(232,369,cs),
(232,366,o),
(233,364,o),
(235,362,cs)
);
},
{
closed = 1;
nodes = (
(416,201,o),
(482,227,o),
(482,276,cs),
(482,285,o),
(479,297,o),
(474,307,cs),
(469,315,o),
(461,328,o),
(448,334,c),
(442,338,o),
(434,339,o),
(428,339,cs),
(386,339,o),
(370,275,o),
(363,245,cs),
(361,237,o),
(358,215,o),
(357,208,cs),
(357,206,o),
(357,205,o),
(357,204,c),
(377,207,o),
(378,210,o),
(379,214,cs),
(382,228,o),
(384,239,o),
(385,247,c),
(376,244,o),
(352,177,o),
(352,176,c),
(372,174,l),
(374,185,o),
(379,213,o),
(388,258,cs),
(390,271,o),
(392,283,o),
(394,296,cs),
(397,320,o),
(402,361,o),
(404,384,cs),
(408,421,o),
(409,458,o),
(410,495,cs),
(410,501,o),
(406,505,o),
(400,505,cs),
(394,505,o),
(390,501,o),
(390,495,cs),
(389,458,o),
(388,423,o),
(384,386,cs),
(382,363,o),
(377,322,o),
(374,298,cs),
(372,287,o),
(370,275,o),
(368,262,cs),
(360,217,o),
(354,189,o),
(352,178,c),
(372,176,l),
(372,176,o),
(378,279,o),
(367,267,c),
(367,262,o),
(365,247,o),
(359,218,cs),
(358,214,o),
(357,209,o),
(357,204,c),
(381,205,o),
(376,206,o),
(377,208,c),
(378,216,o),
(381,234,o),
(383,241,cs),
(390,270,o),
(402,319,o),
(428,319,cs),
(432,319,o),
(436,318,o),
(440,316,cs),
(447,314,o),
(451,305,o),
(456,297,cs),
(461,289,o),
(462,283,o),
(462,276,cs),
(462,242,o),
(411,221,o),
(375,218,cs),
(369,218,o),
(365,214,o),
(365,208,cs),
(365,202,o),
(369,198,o),
(375,198,cs)
);
}
);
width = 600;
}
);
unicode = 989513;
},
{
glyphname = "pana-sp";
lastChange = "2024-01-31 22:34:06 +0000";
layers = (
{
layerId = m01;
shapes = (
{
closed = 1;
nodes = (
(182,345,o),
(139,339,o),
(121,353,cs),
(101,367,o),
(92,393,o),
(92,421,cs),
(92,424,o),
(93,429,o),
(93,434,c),
(98,471,o),
(117,498,o),
(156,498,cs),
(166,498,o),
(166,498,o),
(166,491,cs),
(166,485,o),
(164,479,o),
(161,469,cs),
(148,424,o),
(132,409,o),
(92,409,cs),
(88,409,o),
(83,409,o),
(78,409,cs),
(72,409,o),
(68,405,o),
(68,399,cs),
(68,393,o),
(72,389,o),
(78,389,cs),
(83,389,o),
(88,389,o),
(92,389,cs),
(141,389,o),
(166,413,o),
(181,463,cs),
(184,473,o),
(186,483,o),
(186,491,cs),
(186,507,o),
(177,518,o),
(156,518,cs),
(106,518,o),
(78,478,o),
(73,436,cs),
(73,431,o),
(72,426,o),
(72,421,cs),
(72,389,o),
(84,355,o),
(109,337,cs),
(133,317,o),
(182,325,o),
(206,322,cs),
(212,321,o),
(217,326,o),
(217,332,cs),
(217,337,o),
(213,341,o),
(208,342,cs)
);
},
{
closed = 1;
nodes = (
(543,381,o),
(524,399,o),
(511,417,cs),
(503,428,o),
(497,438,o),
(490,450,cs),
(483,463,o),
(477,490,o),
(462,505,cs),
(455,512,o),
(448,516,o),
(440,516,cs),
(393,516,o),
(389,366,o),
(388,369,c),
(388,361,o),
(389,358,o),
(387,356,c),
(396,351,o),
(396,351,o),
(396,351,c),
(401,355,o),
(405,357,o),
(401,364,c),
(396,378,o),
(396,378,o),
(385,406,cs),
(372,447,o),
(355,515,o),
(301,529,cs),
(296,530,o),
(292,530,o),
(289,530,cs),
(231,530,o),
(223,419,o),
(223,363,cs),
(223,353,o),
(223,344,o),
(223,338,cs),
(223,332,o),
(227,328,o),
(233,328,cs),
(239,328,o),
(243,332,o),
(243,338,cs),
(243,344,o),
(243,353,o),
(243,363,cs),
(243,418,o),
(250,510,o),
(289,510,cs),
(292,510,o),
(294,510,o),
(297,509,cs),
(339,499,o),
(352,441,o),
(367,400,cs),
(377,371,o),
(377,371,o),
(383,356,cs),
(384,353,o),
(390,341,o),
(396,341,c),
(396,344,o),
(396,346,o),
(396,347,c),
(407,334,o),
(408,359,o),
(408,367,cs),
(409,380,o),
(417,496,o),
(440,496,cs),
(442,496,o),
(444,495,o),
(448,491,cs),
(459,480,o),
(463,457,o),
(472,440,cs),
(479,428,o),
(487,416,o),
(495,405,cs),
(508,385,o),
(527,369,o),
(536,350,cs),
(538,346,o),
(541,344,o),
(545,344,cs),
(553,344,o),
(557,353,o),
(554,358,cs)
);
},
{
closed = 1;
nodes = (
(128,30,o),
(138,134,o),
(156,184,c),
(159,190,o),
(154,197,o),
(147,197,cs),
(143,197,o),
(139,194,o),
(138,190,cs),
(118,138,o),
(108,30,o),
(108,-25,cs),
(108,-31,o),
(112,-35,o),
(118,-35,cs),
(124,-35,o),
(128,-31,o),
(128,-25,cs)
);
},
{
closed = 1;
nodes = (
(118,247,o),
(118,247,o),
(118,247,c),
(118,241,o),
(122,237,o),
(128,237,cs),
(134,237,o),
(138,241,o),
(138,247,cs),
(138,254,o),
(135,258,o),
(132,261,cs),
(130,263,o),
(128,264,o),
(125,264,cs),
(119,264,o),
(115,260,o),
(115,254,cs),
(115,251,o),
(116,249,o),
(118,247,c)
);
},
{
closed = 1;
nodes = (
(330,69,o),
(330,124,o),
(339,179,cs),
(340,185,o),
(335,191,o),
(329,191,cs),
(324,191,o),
(320,187,o),
(319,183,cs),
(310,126,o),
(310,69,o),
(310,12,cs),
(310,6,o),
(314,2,o),
(320,2,cs),
(326,2,o),
(330,6,o),
(330,12,cs)
);
},
{
closed = 1;
nodes = (
(389,144,o),
(325,149,o),
(261,149,cs),
(255,149,o),
(251,145,o),
(251,139,cs),
(251,133,o),
(255,129,o),
(261,129,cs),
(325,129,o),
(389,124,o),
(454,124,cs),
(460,124,o),
(464,128,o),
(464,134,cs),
(464,140,o),
(460,144,o),
(454,144,cs)
);
}
);
width = 600;
}
);
unicode = 989516;
},
{
glyphname = "pi-sp";
lastChange = "2024-01-31 22:37:21 +0000";
layers = (
{
layerId = m01;
shapes = (
{
closed = 1;
nodes = (
(181,352,o),
(210,326,o),
(213,300,cs),
(213,299,o),
(213,298,o),
(213,297,cs),
(213,279,o),
(200,262,o),
(184,248,cs),
(171,236,o),
(160,227,o),
(144,225,cs),
(141,225,o),
(138,225,o),
(134,225,cs),
(101,225,o),
(89,240,o),
(89,261,cs),
(89,292,o),
(115,328,o),
(160,338,cs),
(165,339,o),
(168,343,o),
(168,348,cs),
(168,354,o),
(162,359,o),
(156,358,cs),
(102,346,o),
(69,299,o),
(69,261,cs),
(69,231,o),
(90,205,o),
(134,205,cs),
(138,205,o),
(141,205,o),
(145,205,cs),
(168,207,o),
(185,220,o),
(198,234,c),
(215,248,o),
(233,271,o),
(233,297,cs),
(233,298,o),
(233,299,o),
(233,301,cs),
(230,336,o),
(190,372,o),
(158,373,cs),
(152,373,o),
(148,369,o),
(148,363,cs),
(148,357,o),
(152,353,o),
(158,353,cs)
);
},
{
closed = 1;
nodes = (
(304,199,o),
(302,216,o),
(302,233,cs),
(302,295,o),
(330,344,o),
(388,388,cs),
(398,395,o),
(439,428,o),
(459,428,cs),
(461,428,o),
(461,428,o),
(461,428,c),
(463,426,o),
(465,425,o),
(468,425,cs),
(474,425,o),
(478,429,o),
(478,435,cs),
(478,438,o),
(477,440,o),
(475,442,cs),
(471,446,o),
(464,448,o),
(459,448,cs),
(432,448,o),
(386,411,o),
(376,404,cs),
(314,357,o),
(282,301,o),
(282,233,cs),
(282,214,o),
(284,195,o),
(288,175,cs),
(289,170,o),
(293,167,o),
(298,167,cs),
(304,167,o),
(309,173,o),
(308,179,cs)
);
},
{
closed = 1;
nodes = (
(391,330,o),
(361,328,o),
(332,328,cs),
(311,328,o),
(292,329,o),
(274,332,cs),
(268,333,o),
(262,328,o),
(262,322,cs),
(262,317,o),
(266,313,o),
(270,312,cs),
(290,309,o),
(311,308,o),
(332,308,cs),
(361,308,o),
(391,310,o),
(419,310,cs),
(425,310,o),
(429,314,o),
(429,320,cs),
(429,326,o),
(425,330,o),
(419,330,cs)
);
},
{
closed = 1;
nodes = (
(412,569,o),
(435,551,o),
(438,548,cs),
(455,533,o),
(474,516,o),
(477,495,cs),
(480,482,o),
(481,462,o),
(481,436,cs),
(481,360,o),
(470,253,o),
(452,216,cs),
(433,178,o),
(403,132,o),
(370,106,cs),
(329,72,o),
(287,58,o),
(237,58,cs),
(229,58,o),
(222,58,o),
(213,59,cs),
(185,61,o),
(151,60,o),
(129,72,cs),
(69,102,o),
(43,187,o),
(43,264,cs),
(43,294,o),
(47,323,o),
(55,345,cs),
(70,384,o),
(98,418,o),
(127,449,cs),
(170,494,o),
(204,515,o),
(263,537,cs),
(309,553,o),
(350,566,o),
(393,566,cs),
(410,566,o),
(427,564,o),
(445,558,cs),
(451,556,o),
(458,561,o),
(458,568,cs),
(458,572,o),
(455,576,o),
(451,578,c),
(431,584,o),
(412,586,o),
(393,586,cs),
(346,586,o),
(303,571,o),
(257,555,cs),
(196,533,o),
(158,510,o),
(113,463,cs),
(84,432,o),
(52,394,o),
(37,353,cs),
(27,327,o),
(23,296,o),
(23,264,cs),
(23,183,o),
(52,88,o),
(119,54,cs),
(147,40,o),
(185,41,o),
(211,39,cs),
(220,38,o),
(229,38,o),
(237,38,cs),
(291,38,o),
(339,54,o),
(382,90,cs),
(417,118,o),
(451,168,o),
(470,208,cs),
(490,247,o),
(501,360,o),
(501,436,cs),
(501,462,o),
(500,484,o),
(497,499,cs),
(492,526,o),
(469,547,o),
(452,562,cs),
(449,565,o),
(429,556,o),
(431,557,cs),
(435,559,o),
(437,562,o),
(437,566,cs),
(437,574,o),
(428,578,o),
(423,575,cs)
);
},
{
closed = 1;
nodes = (
(56,51,o),
(84,116,o),
(122,175,cs),
(188,275,o),
(269,372,o),
(354,458,cs),
(380,484,o),
(454,574,o),
(489,575,cs),
(495,575,o),
(499,579,o),
(499,585,cs),
(499,591,o),
(495,595,o),
(489,595,cs),
(443,594,o),
(365,497,o),
(340,472,cs),
(255,386,o),
(172,287,o),
(106,185,cs),
(66,126,o),
(38,61,o),
(-5,5,c),
(-6,3,o),
(-7,1,o),
(-7,-1,cs),
(-7,-7,o),
(-3,-11,o),
(3,-11,cs),
(6,-11,o),
(9,-9,o),
(11,-7,cs)
);
}
);
width = 600;
}
);
unicode = 989517;
},
{
glyphname = "pona-sp";
lastChange = "2024-01-31 22:32:24 +0000";
layers = (
{
layerId = m01;
shapes = (
{
closed = 1;
nodes = (
(164,218,o),
(165,235,o),
(165,245,cs),
(165,248,o),
(165,251,o),
(165,252,cs),
(163,277,o),
(149,355,o),
(113,365,cs),
(107,366,o),
(102,366,o),
(99,366,cs),
(46,366,o),
(39,279,o),
(39,226,cs),
(39,209,o),
(40,194,o),
(40,187,cs),
(40,167,o),
(61,179,o),
(61,191,cs),
(62,200,o),
(64,210,o),
(64,221,cs),
(65,231,o),
(65,242,o),
(65,252,cs),
(65,254,o),
(65,255,o),
(65,257,cs),
(65,265,o),
(65,273,o),
(66,281,cs),
(67,304,o),
(67,326,o),
(67,348,cs),
(67,359,o),
(67,371,o),
(67,383,cs),
(67,421,o),
(68,458,o),
(73,495,cs),
(74,501,o),
(69,506,o),
(63,506,cs),
(58,506,o),
(54,502,o),
(53,497,cs),
(48,460,o),
(47,421,o),
(47,383,cs),
(47,371,o),
(47,359,o),
(47,348,cs),
(47,326,o),
(47,304,o),
(46,283,cs),
(45,275,o),
(45,265,o),
(45,257,cs),
(45,255,o),
(45,254,o),
(45,252,cs),
(45,242,o),
(45,231,o),
(44,221,cs),
(44,212,o),
(42,202,o),
(41,191,cs),
(41,189,o),
(60,179,o),
(60,187,cs),
(60,194,o),
(59,209,o),
(59,226,cs),
(59,278,o),
(65,346,o),
(99,346,cs),
(102,346,o),
(105,346,o),
(107,345,c),
(130,339,o),
(143,274,o),
(145,252,cs),
(145,251,o),
(145,248,o),
(145,245,cs),
(145,235,o),
(144,219,o),
(144,206,cs),
(144,200,o),
(148,196,o),
(154,196,cs),
(160,196,o),
(164,200,o),
(164,206,cs)
);
},
{
closed = 1;
nodes = (
(314,225,o),
(295,222,o),
(277,222,cs),
(261,222,o),
(247,224,o),
(239,231,cs),
(226,241,o),
(221,253,o),
(221,267,cs),
(221,297,o),
(248,326,o),
(282,331,cs),
(283,331,o),
(284,331,o),
(285,331,cs),
(292,331,o),
(293,328,o),
(293,318,cs),
(293,310,o),
(290,301,o),
(286,295,c),
(262,267,o),
(226,253,o),
(189,253,cs),
(183,253,o),
(179,249,o),
(179,243,cs),
(179,237,o),
(183,233,o),
(189,233,cs),
(230,233,o),
(274,250,o),
(302,283,c),
(308,292,o),
(313,306,o),
(313,318,cs),
(313,337,o),
(303,351,o),
(285,351,cs),
(284,351,o),
(283,351,o),
(280,351,cs),
(238,346,o),
(201,306,o),
(201,267,cs),
(201,249,o),
(210,229,o),
(227,215,cs),
(239,205,o),
(259,202,o),
(277,202,cs),
(297,202,o),
(318,205,o),
(331,208,cs),
(336,209,o),
(339,213,o),
(339,218,cs),
(339,224,o),
(333,229,o),
(327,228,cs)
);
},
{
closed = 1;
nodes = (
(424,296,o),
(409,315,o),
(409,326,cs),
(409,329,o),
(409,327,o),
(412,331,cs),
(418,337,o),
(392,333,o),
(392,331,cs),
(392,319,o),
(389,311,o),
(380,302,c),
(370,289,o),
(358,277,o),
(347,277,cs),
(343,277,o),
(341,278,o),
(337,283,c),
(337,284,o),
(337,284,o),
(337,286,cs),
(337,302,o),
(368,327,o),
(386,327,cs),
(390,327,o),
(390,327,o),
(390,326,c),
(392,323,o),
(395,321,o),
(399,321,cs),
(408,321,o),
(411,330,o),
(408,336,cs),
(403,344,o),
(396,347,o),
(386,347,cs),
(359,347,o),
(317,313,o),
(317,286,cs),
(317,281,o),
(318,277,o),
(321,273,cs),
(327,262,o),
(338,257,o),
(347,257,cs),
(366,257,o),
(384,275,o),
(396,288,cs),
(407,301,o),
(412,315,o),
(412,331,cs),
(412,333,o),
(395,335,o),
(392,339,c),
(389,334,o),
(389,330,o),
(389,326,cs),
(389,307,o),
(408,284,o),
(414,276,cs),
(416,274,o),
(419,272,o),
(422,272,cs),
(428,272,o),
(432,276,o),
(432,282,cs),
(432,284,o),
(431,286,o),
(430,288,cs)
);
},
{
closed = 1;
nodes = (
(522,218,o),
(485,254,o),
(465,296,cs),
(456,313,o),
(452,331,o),
(452,350,cs),
(452,382,o),
(464,411,o),
(490,434,cs),
(499,442,o),
(502,444,o),
(501,444,cs),
(494,444,o),
(498,443,o),
(505,428,cs),
(510,414,o),
(512,401,o),
(512,388,cs),
(512,375,o),
(510,361,o),
(506,347,cs),
(501,326,o),
(496,317,o),
(484,294,cs),
(468,262,o),
(445,232,o),
(431,198,cs),
(428,191,o),
(433,184,o),
(440,184,cs),
(444,184,o),
(448,187,o),
(449,190,cs),
(463,222,o),
(484,252,o),
(502,284,cs),
(514,307,o),
(519,318,o),
(526,341,cs),
(530,357,o),
(532,373,o),
(532,388,cs),
(532,403,o),
(530,420,o),
(523,436,cs),
(516,454,o),
(513,464,o),
(501,464,cs),
(494,464,o),
(488,459,o),
(476,448,cs),
(447,423,o),
(432,386,o),
(432,350,cs),
(432,329,o),
(436,307,o),
(447,286,cs),
(469,242,o),
(508,204,o),
(544,172,cs),
(546,170,o),
(548,169,o),
(551,169,cs),
(557,169,o),
(561,173,o),
(561,179,cs),
(561,182,o),
(560,185,o),
(558,186,c)
);
}
);
width = 600;
}
);
unicode = 989524;
},
{
glyphname = "sina-sp";
lastChange = "2024-01-31 22:33:51 +0000";
layers = (
{
layerId = m01;
shapes = (
{
closed = 1;
nodes = (
(17,131,o),
(7,98,o),
(7,70,cs),
(7,33,o),
(24,-6,o),
(52,-6,cs),
(69,-6,o),
(86,8,o),
(103,37,cs),
(122,73,o),
(121,117,o),
(125,153,cs),
(133,237,o),
(134,447,o),
(202,489,cs),
(209,493,o),
(187,498,o),
(187,492,cs),
(187,491,o),
(187,491,o),
(187,490,cs),
(187,483,o),
(186,473,o),
(186,467,cs),
(184,448,o),
(181,438,o),
(176,416,c),
(176,414,o),
(176,413,o),
(174,409,c),
(164,364,o),
(150,297,o),
(103,297,cs),
(70,297,o),
(63,348,o),
(63,400,cs),
(63,427,o),
(65,451,o),
(66,465,cs),
(66,471,o),
(62,475,o),
(56,475,cs),
(50,475,o),
(46,471,o),
(46,465,cs),
(45,453,o),
(43,427,o),
(43,400,cs),
(43,346,o),
(51,277,o),
(103,277,cs),
(166,277,o),
(184,358,o),
(194,403,cs),
(195,406,o),
(196,410,o),
(196,414,c),
(201,434,o),
(204,445,o),
(206,467,cs),
(206,473,o),
(207,483,o),
(207,490,cs),
(207,491,o),
(207,491,o),
(207,492,cs),
(207,507,o),
(197,511,o),
(190,505,c),
(113,455,o),
(113,237,o),
(105,155,cs),
(101,117,o),
(102,77,o),
(85,47,cs),
(71,22,o),
(62,14,o),
(52,14,cs),
(38,14,o),
(27,37,o),
(27,70,cs),
(27,94,o),
(35,119,o),
(53,133,cs),
(55,135,o),
(57,138,o),
(57,141,cs),
(57,147,o),
(53,151,o),
(47,151,cs),
(45,151,o),
(43,150,o),
(41,149,cs)
);
},
{
closed = 1;
nodes = (
(263,463,o),
(263,458,o),
(263,453,cs),
(263,450,o),
(263,448,o),
(263,445,cs),
(263,438,o),
(263,429,o),
(266,422,cs),
(283,373,o),
(318,350,o),
(319,302,c),
(320,296,o),
(320,288,o),
(320,281,cs),
(320,255,o),
(318,230,o),
(317,203,cs),
(316,176,o),
(313,151,o),
(302,127,cs),
(291,104,o),
(258,70,o),
(231,70,cs),
(223,70,o),
(217,72,o),
(211,81,cs),
(200,97,o),
(195,132,o),
(195,175,cs),
(195,241,o),
(207,317,o),
(216,347,cs),
(229,383,o),
(259,434,o),
(296,443,cs),
(301,444,o),
(304,448,o),
(304,453,cs),
(304,459,o),
(298,464,o),
(292,463,cs),
(245,452,o),
(211,392,o),
(198,353,cs),
(187,321,o),
(175,243,o),
(175,175,cs),
(175,130,o),
(180,89,o),
(195,69,cs),
(205,55,o),
(218,50,o),
(231,50,cs),
(267,50,o),
(307,91,o),
(320,119,cs),
(333,145,o),
(336,174,o),
(337,203,cs),
(338,228,o),
(340,255,o),
(340,281,cs),
(340,288,o),
(340,296,o),
(339,304,c),
(338,358,o),
(299,387,o),
(284,430,cs),
(283,433,o),
(283,438,o),
(283,445,cs),
(283,448,o),
(283,450,o),
(283,453,cs),
(283,458,o),
(283,465,o),
(282,471,cs),
(281,476,o),
(277,479,o),
(272,479,cs),
(266,479,o),
(261,473,o),
(262,467,cs)
);
},
{
closed = 1;
nodes = (
(546,399,o),
(579,288,o),
(579,208,cs),
(579,190,o),
(577,174,o),
(573,161,cs),
(557,107,o),
(513,54,o),
(458,54,cs),
(449,54,o),
(440,56,o),
(431,59,cs),
(394,70,o),
(390,121,o),
(387,157,cs),
(384,193,o),
(373,225,o),
(365,257,cs),
(352,317,o),
(339,404,o),
(339,463,cs),
(339,469,o),
(335,473,o),
(329,473,cs),
(323,473,o),
(319,469,o),
(319,463,cs),
(319,402,o),
(332,313,o),
(345,253,cs),
(353,219,o),
(364,189,o),
(367,155,cs),
(370,119,o),
(375,54,o),
(425,39,cs),
(436,36,o),
(447,34,o),
(458,34,cs),
(524,34,o),
(575,96,o),
(593,155,cs),
(597,170,o),
(599,188,o),
(599,208,cs),
(599,290,o),
(564,407,o),
(535,465,cs),
(533,469,o),
(530,471,o),
(526,471,cs),
(518,471,o),
(514,462,o),
(517,457,cs)
);
}
);
width = 600;
}
);
unicode = 989534;
},
{
glyphname = "sitelen-sp";
lastChange = "2024-01-31 22:40:07 +0000";
layers = (
{
layerId = m01;
shapes = (
{
closed = 1;
nodes = (
(190,203,o),
(190,214,o),
(190,225,cs),
(190,230,o),
(190,236,o),
(190,241,cs),
(190,319,o),
(190,292,o),
(188,348,cs),
(187,382,o),
(186,379,o),
(186,388,cs),
(186,392,o),
(186,397,o),
(186,404,cs),
(186,401,o),
(187,408,o),
(187,410,c),
(171,412,o),
(181,411,o),
(163,411,c),
(159,402,o),
(155,392,o),
(153,386,c),
(124,328,o),
(104,262,o),
(72,207,c),
(78,205,o),
(75,205,o),
(75,205,c),
(75,195,o),
(75,195,o),
(75,195,c),
(85,196,o),
(85,197,o),
(85,198,cs),
(85,219,o),
(83,241,o),
(83,262,cs),
(83,297,o),
(85,332,o),
(85,367,cs),
(85,380,o),
(85,392,o),
(84,405,c),
(84,405,o),
(84,405,o),
(84,398,cs),
(84,403,o),
(85,407,o),
(85,410,cs),
(85,417,o),
(79,421,o),
(74,421,cs),
(61,421,o),
(53,389,o),
(47,364,cs),
(33,297,o),
(31,232,o),
(7,171,cs),
(4,164,o),
(9,157,o),
(16,157,cs),
(20,157,o),
(24,160,o),
(25,163,cs),
(51,228,o),
(53,295,o),
(67,360,cs),
(70,376,o),
(86,401,o),
(74,401,cs),
(77,401,o),
(65,413,o),
(65,410,cs),
(65,408,o),
(88,424,o),
(64,418,c),
(64,408,o),
(64,407,o),
(64,405,cs),
(65,392,o),
(65,380,o),
(65,367,cs),
(65,332,o),
(63,297,o),
(63,262,cs),
(63,241,o),
(65,219,o),
(65,198,cs),
(65,197,o),
(65,196,o),
(65,195,c),
(75,195,o),
(75,195,o),
(75,195,c),
(75,185,o),
(76,185,o),
(76,185,c),
(120,242,o),
(140,316,o),
(171,378,c),
(175,389,o),
(182,408,o),
(189,411,c),
(177,410,o),
(177,410,o),
(177,410,c),
(167,410,o),
(166,405,o),
(166,404,cs),
(166,397,o),
(166,392,o),
(166,388,cs),
(166,373,o),
(167,372,o),
(168,348,cs),
(170,292,o),
(170,292,o),
(170,241,cs),
(170,236,o),
(170,230,o),
(170,225,cs),
(170,214,o),
(170,203,o),
(170,192,cs),
(170,186,o),
(174,182,o),
(180,182,cs),
(186,182,o),
(190,186,o),
(190,192,cs)
);
},
{
closed = 1;
nodes = (
(262,204,o),
(260,210,o),
(260,222,cs),
(260,235,o),
(263,250,o),
(264,257,cs),
(265,266,o),
(254,274,o),
(258,274,c),
(258,274,o),
(258,274,o),
(258,274,c),
(250,274,o),
(252,282,o),
(252,277,cs),
(252,256,o),
(220,190,o),
(208,190,cs),
(210,190,o),
(211,190,o),
(211,189,c),
(209,191,o),
(208,194,o),
(208,199,cs),
(208,224,o),
(236,260,o),
(244,260,cs),
(245,260,o),
(239,263,o),
(240,262,cs),
(242,260,o),
(244,259,o),
(247,259,cs),
(253,259,o),
(257,263,o),
(257,269,cs),
(257,272,o),
(256,274,o),
(254,276,cs),
(251,279,o),
(246,280,o),
(244,280,cs),
(223,280,o),
(188,231,o),
(188,199,cs),
(188,189,o),
(192,180,o),
(197,175,cs),
(200,172,o),
(205,170,o),
(208,170,cs),
(235,170,o),
(272,252,o),
(272,277,cs),
(272,282,o),
(270,287,o),
(267,290,c),
(266,289,o),
(266,289,o),
(265,289,c),
(253,307,o),
(246,273,o),
(244,259,cs),
(243,254,o),
(240,237,o),
(240,222,cs),
(240,205,o),
(245,190,o),
(257,184,cs),
(262,181,o),
(271,185,o),
(271,193,cs),
(271,197,o),
(269,200,o),
(265,202,cs)
);
},
{
closed = 1;
nodes = (
(316,281,o),
(295,266,o),
(295,225,cs),
(295,222,o),
(295,219,o),
(295,215,cs),
(296,206,o),
(295,188,o),
(305,179,c),
(307,178,o),
(310,177,o),
(312,177,cs),
(318,177,o),
(322,181,o),
(322,187,cs),
(322,190,o),
(321,193,o),
(319,195,c),
(315,197,o),
(316,208,o),
(315,217,cs),
(315,219,o),
(315,222,o),
(315,225,cs),
(315,255,o),
(326,263,o),
(358,273,c),
(362,275,o),
(365,279,o),
(365,283,cs),
(365,290,o),
(358,295,o),
(352,293,cs)
);
},
{
closed = 1;
nodes = (
(396,176,o),
(395,188,o),
(395,179,cs),
(395,222,o),
(409,276,o),
(440,304,c),
(442,305,o),
(443,308,o),
(443,311,cs),
(443,317,o),
(439,321,o),
(433,321,cs),
(430,321,o),
(428,320,o),
(426,318,cs),
(391,286,o),
(375,225,o),
(375,179,cs),
(375,177,o),
(376,173,o),
(376,174,cs),
(376,168,o),
(380,164,o),
(386,164,cs),
(392,164,o),
(396,168,o),
(396,174,cs)
);
},
{
closed = 1;
nodes = (
(473,175,o),
(409,199,o),
(409,219,cs),
(409,222,o),
(411,225,o),
(418,230,cs),
(429,238,o),
(439,245,o),
(448,246,cs),
(454,246,o),
(458,250,o),
(458,256,cs),
(458,262,o),
(454,266,o),
(448,266,cs),
(431,265,o),
(417,254,o),
(406,246,cs),
(394,238,o),
(389,228,o),
(389,219,cs),
(389,184,o),
(465,157,o),
(485,148,cs),
(491,145,o),
(499,150,o),
(499,157,cs),
(499,161,o),
(497,165,o),
(493,166,c)
);
}
);
width = 600;
}
);
unicode = 989536;
},
{
glyphname = "sona-sp";
lastChange = "2024-01-31 22:34:35 +0000";
layers = (
{
layerId = m01;
shapes = (
{
closed = 1;
nodes = (
(30,233,o),
(41,233,o),
(50,233,cs),
(62,233,o),
(74,234,o),
(83,234,cs),
(144,236,o),
(166,250,o),
(166,274,cs),
(166,306,o),
(118,347,o),
(106,383,cs),
(105,385,o),
(105,387,o),
(105,391,cs),
(105,407,o),
(118,416,o),
(136,416,cs),
(140,416,o),
(144,415,o),
(148,414,cs),
(155,411,o),
(162,416,o),
(162,423,cs),
(162,427,o),
(159,431,o),
(156,432,cs),
(150,435,o),
(142,436,o),
(136,436,cs),
(111,436,o),
(85,418,o),
(85,391,cs),
(85,386,o),
(85,380,o),
(88,375,c),
(102,335,o),
(146,296,o),
(146,274,cs),
(146,263,o),
(135,256,o),
(83,254,cs),
(74,254,o),
(62,253,o),
(50,253,cs),
(41,253,o),
(34,253,o),
(29,255,cs),
(22,258,o),
(15,253,o),
(15,246,cs),
(15,242,o),
(17,238,o),
(21,237,cs)
);
},
{
closed = 1;
nodes = (
(200,281,o),
(198,307,o),
(198,336,cs),
(198,354,o),
(199,371,o),
(200,390,cs),
(200,396,o),
(196,400,o),
(190,400,cs),
(184,400,o),
(180,396,o),
(180,390,cs),
(179,373,o),
(178,354,o),
(178,336,cs),
(178,307,o),
(180,279,o),
(184,250,cs),
(185,245,o),
(189,241,o),
(194,241,cs),
(200,241,o),
(205,246,o),
(204,252,cs)
);
},
{
closed = 1;
nodes = (
(236,297,o),
(218,303,o),
(218,307,cs),
(218,308,o),
(219,310,o),
(228,316,cs),
(239,323,o),
(248,333,o),
(257,337,cs),
(261,338,o),
(264,342,o),
(264,346,cs),
(264,355,o),
(256,357,o),
(251,355,cs),
(236,351,o),
(225,339,o),
(216,332,cs),
(203,323,o),
(198,315,o),
(198,307,cs),
(198,288,o),
(223,281,o),
(250,270,cs),
(257,267,o),
(264,272,o),
(264,279,cs),
(264,283,o),
(262,287,o),
(258,288,cs)
);
},
{
closed = 1;
nodes = (
(316,283,o),
(322,314,o),
(335,339,cs),
(338,345,o),
(334,354,o),
(326,354,cs),
(322,354,o),
(319,352,o),
(317,349,cs),
(302,320,o),
(296,287,o),
(289,258,cs),
(288,252,o),
(293,246,o),
(299,246,cs),
(304,246,o),
(308,249,o),
(309,254,cs)
);
},
{
closed = 1;
nodes = (
(343,422,o),
(335,419,o),
(336,419,cs),
(342,419,o),
(346,423,o),
(346,429,cs),
(346,435,o),
(342,439,o),
(336,439,cs),
(335,439,o),
(329,436,o),
(328,435,cs),
(326,433,o),
(325,431,o),
(325,428,cs),
(325,422,o),
(329,418,o),
(335,418,cs),
(338,418,o),
(340,419,o),
(342,421,cs)
);
},
{
closed = 1;
nodes = (
(389,261,o),
(376,285,o),
(376,313,cs),
(376,335,o),
(385,359,o),
(400,383,cs),
(404,390,o),
(406,393,o),
(400,393,cs),
(395,393,o),
(400,360,o),
(401,352,cs),
(402,346,o),
(403,339,o),
(403,332,cs),
(403,295,o),
(391,256,o),
(357,248,cs),
(352,247,o),
(349,243,o),
(349,238,cs),
(349,232,o),
(355,227,o),
(361,228,cs),
(408,240,o),
(423,291,o),
(423,332,cs),
(423,341,o),
(422,351,o),
(421,358,c),
(419,359,o),
(408,413,o),
(400,413,cs),
(394,413,o),
(384,396,o),
(382,393,cs),
(367,367,o),
(356,339,o),
(356,313,cs),
(356,279,o),
(373,247,o),
(412,223,cs),
(418,220,o),
(427,223,o),
(427,232,cs),
(427,236,o),
(425,239,o),
(422,241,cs)
);
},
{
closed = 1;
nodes = (
(491,213,o),
(450,270,o),
(450,327,cs),
(450,340,o),
(452,351,o),
(456,364,cs),
(463,382,o),
(471,403,o),
(485,411,c),
(497,431,o),
(476,410,o),
(480,410,cs),
(483,410,o),
(468,425,o),
(472,414,c),
(482,404,o),
(485,391,o),
(485,372,cs),
(485,342,o),
(475,308,o),
(469,288,cs),
(461,267,o),
(451,247,o),
(439,227,cs),
(436,221,o),
(439,212,o),
(448,212,cs),
(452,212,o),
(455,214,o),
(457,217,cs),
(469,237,o),
(479,259,o),
(487,282,cs),
(495,302,o),
(505,340,o),
(505,372,cs),
(505,390,o),
(502,409,o),
(491,423,c),
(489,427,o),
(485,430,o),
(480,430,cs),
(477,430,o),
(474,429,o),
(472,426,c),
(453,414,o),
(443,388,o),
(438,370,c),
(432,357,o),
(430,342,o),
(430,327,cs),
(430,263,o),
(477,197,o),
(535,170,cs),
(540,167,o),
(549,171,o),
(549,179,cs),
(549,183,o),
(547,186,o),
(543,188,cs)
);
}
);
width = 600;
}
);
unicode = 989537;
},
{
glyphname = "suli-sp";
lastChange = "2024-01-31 22:52:29 +0000";
layers = (
{
layerId = m01;
shapes = (
{
closed = 1;
nodes = (
(246,16,l),
(282,16,l),
(276,20,l),
(276,21,o),
(275,21,o),
(275,21,c),
(272,23,l),
(270,26,o),
(268,29,o),
(268,33,c),
(268,38,l),
(268,40,l),
(268,123,l),
(268,146,o),
(266,163,o),
(260,174,c),
(253,189,o),
(242,198,o),
(226,203,c),
(236,195,o),
(242,184,o),
(244,168,c),
(245,158,o),
(246,143,o),
(246,122,c)
);
},
{
closed = 1;
nodes = (
(237,119,l),
(222,117,o),
(208,113,o),
(197,107,c),
(185,101,o),
(177,94,o),
(171,85,c),
(165,77,o),
(162,67,o),
(162,56,c),
(162,46,o),
(165,37,o),
(171,30,c),
(178,22,o),
(186,19,o),
(196,19,c),
(208,19,o),
(222,25,o),
(237,38,c)
);
},
{
closed = 1;
nodes = (
(172,199,o),
(163,194,o),
(156,188,c),
(149,181,o),
(146,174,o),
(146,166,c),
(146,163,o),
(147,160,o),
(148,158,c),
(149,157,o),
(151,156,o),
(154,156,c),
(156,156,o),
(158,156,o),
(159,158,c),
(160,159,o),
(161,162,o),
(162,166,c),
(164,175,o),
(166,182,o),
(169,187,c),
(172,191,o),
(177,197,o),
(184,202,c)
);
},
{
closed = 1;
nodes = (
(156,15,o),
(142,30,o),
(142,55,c),
(142,71,o),
(149,84,o),
(161,96,c),
(167,101,o),
(178,107,o),
(194,115,c),
(175,111,o),
(159,106,o),
(149,100,c),
(130,88,o),
(121,73,o),
(121,54,c),
(121,41,o),
(126,30,o),
(135,22,c),
(145,13,o),
(158,9,o),
(174,9,c),
(177,9,o),
(181,9,o),
(184,9,c)
);
},
{
closed = 1;
nodes = (
(237,28,l),
(217,11,o),
(196,2,o),
(173,2,c),
(155,2,o),
(140,7,o),
(129,17,c),
(118,26,o),
(112,39,o),
(112,54,c),
(112,76,o),
(123,93,o),
(145,106,c),
(166,118,o),
(197,125,o),
(237,127,c),
(237,134,l),
(237,137,l),
(237,150,o),
(237,160,o),
(236,168,c),
(235,177,o),
(233,183,o),
(231,187,c),
(228,191,o),
(225,195,o),
(220,198,c),
(216,201,o),
(211,202,o),
(206,202,c),
(198,202,o),
(192,200,o),
(188,195,c),
(183,190,o),
(181,182,o),
(180,172,c),
(178,162,o),
(176,155,o),
(173,151,c),
(170,147,o),
(165,145,o),
(158,145,c),
(152,145,o),
(148,147,o),
(144,151,c),
(140,155,o),
(139,160,o),
(139,166,c),
(139,175,o),
(142,182,o),
(148,189,c),
(154,196,o),
(162,201,o),
(173,205,c),
(183,209,o),
(195,211,o),
(208,211,c),
(224,211,o),
(238,208,o),
(251,201,c),
(263,194,o),
(272,185,o),
(278,173,c),
(282,167,o),
(284,161,o),
(285,153,c),
(287,146,o),
(287,135,o),
(287,122,c),
(287,52,l),
(287,38,o),
(289,29,o),
(293,23,c),
(297,17,o),
(305,14,o),
(316,12,c),
(316,5,l),
(237,5,l)
);
},
{
closed = 1;
nodes = (
(513,16,l),
(549,16,l),
(544,20,l),
(543,20,o),
(543,21,o),
(543,21,c),
(539,23,l),
(537,26,o),
(536,29,o),
(536,33,c),
(535,38,l),
(535,40,l),
(535,332,l),
(495,328,l),
(505,321,l),
(505,321,o),
(505,321,o),
(506,320,c),
(509,318,l),
(511,317,o),
(512,315,o),
(512,313,c),
(513,311,o),
(513,307,o),
(513,301,c)
);
},
{
closed = 1;
nodes = (
(505,173,l),
(503,174,l),
(492,184,o),
(483,190,o),
(474,194,c),
(466,199,o),
(457,201,o),
(449,201,c),
(437,201,o),
(427,197,o),
(418,189,c),
(409,182,o),
(402,171,o),
(398,157,c),
(393,143,o),
(390,127,o),
(390,108,c),
(390,90,o),
(393,74,o),
(397,59,c),
(402,45,o),
(409,34,o),
(417,26,c),
(426,18,o),
(436,14,o),
(448,14,c),
(465,14,o),
(484,25,o),
(505,47,c)
);
},
{
closed = 1;
nodes = (
(411,13,o),
(403,18,o),
(399,22,c),
(394,26,o),
(389,32,o),
(385,39,c),
(374,57,o),
(368,78,o),
(368,102,c),
(368,122,o),
(371,138,o),
(377,152,c),
(383,166,o),
(394,181,o),
(409,196,c),
(388,184,o),
(373,169,o),
(362,153,c),
(352,136,o),
(346,117,o),
(346,96,c),
(346,74,o),
(353,55,o),
(366,39,c),
(379,23,o),
(397,13,o),
(421,7,c)
);
},
{
closed = 1;
nodes = (
(505,30,l),
(504,29,l),
(482,10,o),
(458,0,o),
(434,0,c),
(416,0,o),
(400,4,o),
(385,13,c),
(370,21,o),
(359,33,o),
(351,48,c),
(342,63,o),
(338,79,o),
(338,97,c),
(338,116,o),
(343,135,o),
(352,152,c),
(362,170,o),
(375,184,o),
(392,194,c),
(408,204,o),
(426,210,o),
(444,210,c),
(465,210,o),
(486,202,o),
(505,187,c),
(505,288,l),
(505,301,o),
(503,311,o),
(499,317,c),
(495,323,o),
(487,326,o),
(476,328,c),
(476,333,l),
(555,342,l),
(555,52,l),
(555,38,o),
(557,29,o),
(561,23,c),
(565,17,o),
(572,14,o),
(583,12,c),
(583,5,l),
(505,5,l)
);
},
{
closed = 1;
nodes = (
(782,16,l),
(818,16,l),
(813,20,l),
(812,21,o),
(812,21,o),
(812,21,c),
(808,23,l),
(806,26,o),
(805,29,o),
(805,33,c),
(805,38,l),
(805,40,l),
(805,199,l),
(764,194,l),
(774,188,l),
(774,188,o),
(775,188,o),
(775,188,c),
(775,187,o),
(775,187,o),
(775,187,c),
(778,184,l),
(780,184,o),
(781,182,o),
(781,180,c),
(782,178,o),
(782,174,o),
(782,168,c)
);
},
{
closed = 1;
nodes = (
(655,199,l),
(615,194,l),
(625,188,l),
(625,188,o),
(625,188,o),
(625,188,c),
(625,187,o),
(625,187,o),
(626,187,c),
(629,184,l),
(630,184,o),
(631,182,o),
(632,180,c),
(632,178,o),
(633,174,o),
(633,168,c),
(633,77,l),
(633,65,o),
(634,56,o),
(636,48,c),
(638,41,o),
(641,34,o),
(646,28,c),
(652,21,o),
(659,15,o),
(666,12,c),
(673,8,o),
(680,6,o),
(686,6,c),
(687,6,o),
(689,6,o),
(693,7,c),
(684,8,o),
(676,11,o),
(671,16,c),
(665,21,o),
(661,28,o),
(659,37,c),
(656,46,o),
(655,59,o),
(655,75,c)
);
},
{
closed = 1;
nodes = (
(774,48,l),
(760,31,o),
(747,19,o),
(734,11,c),
(721,3,o),
(708,0,o),
(693,0,c),
(680,0,o),
(668,3,o),
(658,8,c),
(647,14,o),
(639,22,o),
(633,32,c),
(627,43,o),
(624,58,o),
(624,77,c),
(624,154,l),
(624,168,o),
(622,178,o),
(618,184,c),
(614,189,o),
(607,193,o),
(596,195,c),
(596,200,l),
(674,209,l),
(674,76,l),
(674,58,o),
(676,45,o),
(678,39,c),
(680,31,o),
(684,25,o),
(689,21,c),
(695,17,o),
(701,15,o),
(708,15,c),
(718,15,o),
(727,18,o),
(737,24,c),
(746,31,o),
(757,41,o),
(770,56,c),
(774,61,l),
(774,154,l),
(774,168,o),
(772,178,o),
(768,184,c),
(764,189,o),
(756,193,o),
(745,195,c),
(745,200,l),
(824,209,l),
(824,52,l),
(824,38,o),
(826,29,o),
(830,23,c),
(834,17,o),
(841,14,o),
(852,12,c),
(852,5,l),
(774,5,l)
);
},
{
closed = 1;
nodes = (
(899,16,l),
(948,16,l),
(942,20,l),
(941,20,o),
(941,21,o),
(941,21,c),
(938,23,l),
(935,26,o),
(934,29,o),
(934,33,c),
(934,38,l),
(934,40,l),
(934,332,l),
(894,328,l),
(903,321,l),
(904,321,o),
(904,321,o),
(904,320,c),
(908,318,l),
(909,317,o),
(910,315,o),
(911,313,c),
(911,311,o),
(911,307,o),
(911,301,c),
(911,40,l),
(911,33,o),
(911,29,o),
(910,27,c),
(910,26,o),
(908,24,o),
(905,21,c),
(904,21,o),
(904,20,o),
(904,20,c)
);
},
{
closed = 1;
nodes = (
(874,5,l),
(874,12,l),
(885,14,o),
(893,17,o),
(897,23,c),
(901,29,o),
(903,38,o),
(903,52,c),
(903,288,l),
(903,301,o),
(901,311,o),
(897,317,c),
(893,323,o),
(885,326,o),
(874,328,c),
(874,333,l),
(953,342,l),
(953,52,l),
(953,38,o),
(955,29,o),
(959,23,c),
(963,17,o),
(970,14,o),
(982,12,c),
(982,5,l)
);
},
{
closed = 1;
nodes = (
(1051,229,l),
(1045,220,o),
(1038,212,o),
(1029,207,c),
(1029,82,l),
(1029,77,l),
(1029,68,o),
(1029,59,o),
(1030,52,c),
(1031,45,o),
(1032,40,o),
(1034,35,c),
(1035,31,o),
(1038,27,o),
(1041,23,c),
(1050,12,o),
(1062,7,o),
(1077,7,c),
(1079,7,o),
(1082,7,o),
(1084,7,c),
(1076,9,o),
(1071,11,o),
(1067,14,c),
(1063,16,o),
(1060,20,o),
(1057,25,c),
(1055,30,o),
(1054,37,o),
(1053,45,c),
(1052,54,o),
(1051,65,o),
(1051,77,c),
(1051,84,l)
);
},
{
closed = 1;
nodes = (
(1070,198,l),
(1070,68,l),
(1070,56,o),
(1071,45,o),
(1073,38,c),
(1074,30,o),
(1077,24,o),
(1080,21,c),
(1083,17,o),
(1088,15,o),
(1093,15,c),
(1103,15,o),
(1115,21,o),
(1130,33,c),
(1134,27,l),
(1123,18,o),
(1113,11,o),
(1104,6,c),
(1095,2,o),
(1086,0,o),
(1076,0,c),
(1058,0,o),
(1044,6,o),
(1035,18,c),
(1025,30,o),
(1020,48,o),
(1020,71,c),
(1020,198,l),
(998,198,l),
(998,204,l),
(1010,206,o),
(1021,210,o),
(1030,217,c),
(1039,225,o),
(1046,234,o),
(1052,247,c),
(1058,260,o),
(1062,275,o),
(1064,294,c),
(1070,294,l),
(1070,205,l),
(1124,205,l),
(1124,198,l)
);
}
);
width = 1246;
}
);
unicode = 989539;
},
{
glyphname = "tawa-sp";
lastChange = "2024-01-31 22:35:35 +0000";
layers = (
{
layerId = m01;
shapes = (
{
closed = 1;
nodes = (
(166,37,o),
(194,81,o),
(214,192,cs),
(220,228,o),
(226,265,o),
(226,302,cs),
(226,303,o),
(226,305,o),
(226,306,cs),
(226,325,o),
(225,319,o),
(224,332,cs),
(224,334,o),
(207,338,o),
(204,339,c),
(189,301,o),
(192,276,o),
(153,265,c),
(150,263,o),
(148,263,o),
(147,263,cs),
(143,263,o),
(143,263,o),
(140,267,cs),
(133,275,o),
(131,282,o),
(131,292,cs),
(131,323,o),
(158,351,o),
(177,351,cs),
(183,351,o),
(184,350,o),
(187,345,c),
(188,341,o),
(192,339,o),
(196,339,cs),
(203,339,o),
(208,347,o),
(205,353,cs),
(199,366,o),
(188,371,o),
(177,371,cs),
(148,371,o),
(111,331,o),
(111,292,cs),
(111,280,o),
(115,266,o),
(124,255,cs),
(129,247,o),
(137,243,o),
(147,243,cs),
(150,243,o),
(156,244,o),
(159,245,cs),
(213,261,o),
(210,302,o),
(224,335,c),
(229,340,o),
(204,334,o),
(204,332,cs),
(205,317,o),
(206,325,o),
(206,306,cs),
(206,305,o),
(206,303,o),
(206,302,cs),
(206,267,o),
(200,232,o),
(194,196,cs),
(176,90,o),
(153,55,o),
(49,37,cs),
(45,36,o),
(41,32,o),
(41,27,cs),
(41,21,o),
(47,16,o),
(53,17,cs)
);
},
{
closed = 1;
nodes = (
(394,307,o),
(416,278,o),
(418,259,c),
(428,260,l),
(428,259,o),
(428,259,o),
(428,258,c),
(418,245,o),
(405,232,o),
(396,219,cs),
(376,190,o),
(360,175,o),
(343,175,cs),
(329,175,o),
(315,184,o),
(296,207,cs),
(287,219,o),
(283,230,o),
(283,243,cs),
(283,288,o),
(330,332,o),
(361,332,cs),
(366,332,o),
(369,331,o),
(373,328,cs),
(374,327,o),
(377,326,o),
(379,326,cs),
(385,326,o),
(389,330,o),
(389,336,cs),
(389,339,o),
(388,342,o),
(385,344,cs),
(379,349,o),
(370,352,o),
(361,352,cs),
(320,352,o),
(263,297,o),
(263,243,cs),
(263,226,o),
(269,209,o),
(280,195,cs),
(302,168,o),
(323,155,o),
(343,155,cs),
(368,155,o),
(391,176,o),
(412,207,cs),
(421,220,o),
(438,237,o),
(438,258,c),
(428,259,o),
(428,259,o),
(428,260,c),
(438,261,l),
(436,286,o),
(410,319,o),
(398,337,cs),
(397,339,o),
(393,341,o),
(390,341,cs),
(381,341,o),
(378,331,o),
(382,325,cs)
);
}
);
width = 600;
}
);
unicode = 989545;
},
{
glyphname = "toki-sp";
lastChange = "2024-01-31 22:38:25 +0000";
layers = (
{
layerId = m01;
shapes = (
{
closed = 1;
nodes = (
(181,183,o),
(177,263,o),
(180,348,cs),
(182,379,o),
(190,407,o),
(199,438,cs),
(202,451,o),
(205,463,o),
(209,475,c),
(212,480,o),
(195,485,o),
(192,482,c),
(192,479,o),
(193,476,o),
(193,476,c),
(193,441,o),
(144,383,o),
(124,359,cs),
(113,347,o),
(107,344,o),
(100,344,cs),
(84,344,o),
(75,382,o),
(68,415,cs),
(65,433,o),
(64,449,o),
(64,468,cs),
(64,474,o),
(60,478,o),
(54,478,cs),
(48,478,o),
(44,474,o),
(44,468,cs),
(44,449,o),
(45,431,o),
(48,411,cs),
(55,377,o),
(67,324,o),
(100,324,cs),
(112,324,o),
(125,331,o),
(138,345,cs),
(160,370,o),
(213,433,o),
(213,476,cs),
(213,479,o),
(212,484,o),
(212,486,c),
(205,505,o),
(190,492,o),
(189,479,c),
(185,467,o),
(182,455,o),
(179,444,cs),
(170,413,o),
(162,383,o),
(160,348,cs),
(157,263,o),
(161,185,o),
(138,104,c),
(137,97,o),
(142,91,o),
(148,91,cs),
(153,91,o),
(156,94,o),
(158,98,c)
);
},
{
closed = 1;
nodes = (
(255,169,o),
(257,169,o),
(255,169,cs),
(247,169,o),
(230,197,o),
(230,234,cs),
(230,252,o),
(234,270,o),
(246,286,cs),
(253,296,o),
(259,300,o),
(271,309,cs),
(283,317,o),
(308,343,o),
(321,343,c),
(321,353,o),
(321,353,o),
(321,353,c),
(324,343,o),
(324,343,o),
(324,333,cs),
(324,326,o),
(316,316,o),
(310,311,cs),
(280,286,o),
(243,275,o),
(209,253,c),
(206,252,o),
(204,249,o),
(204,245,cs),
(204,236,o),
(213,233,o),
(219,237,cs),
(251,257,o),
(290,268,o),
(322,295,cs),
(330,302,o),
(344,318,o),
(344,333,cs),
(344,355,o),
(332,363,o),
(321,363,c),
(321,363,o),
(321,363,o),
(321,363,c),
(300,363,o),
(270,333,o),
(259,325,cs),
(247,316,o),
(239,310,o),
(230,298,cs),
(216,278,o),
(210,254,o),
(210,234,cs),
(210,191,o),
(233,149,o),
(255,149,cs),
(258,149,o),
(264,150,o),
(268,154,cs),
(270,156,o),
(271,158,o),
(271,161,cs),
(271,167,o),
(267,171,o),
(261,171,cs),
(258,171,o),
(256,170,o),
(254,168,cs)
);
},
{
closed = 1;
nodes = (
(344,83,o),
(344,96,o),
(344,112,cs),
(344,204,o),
(375,375,o),
(403,425,cs),
(406,431,o),
(403,440,o),
(394,440,cs),
(390,440,o),
(387,438,o),
(385,435,cs),
(355,381,o),
(324,206,o),
(324,112,cs),
(324,96,o),
(324,81,o),
(326,70,cs),
(327,65,o),
(331,62,o),
(336,62,cs),
(342,62,o),
(347,68,o),
(346,74,cs)
);
},
{
closed = 1;
nodes = (
(440,37,o),
(440,46,o),
(440,55,cs),
(440,91,o),
(439,131,o),
(439,171,cs),
(439,242,o),
(442,312,o),
(459,370,c),
(460,376,o),
(455,383,o),
(449,383,cs),
(444,383,o),
(441,380,o),
(439,376,c),
(422,316,o),
(419,242,o),
(419,171,cs),
(419,131,o),
(420,91,o),
(420,55,cs),
(420,46,o),
(420,37,o),
(420,28,cs),
(420,22,o),
(424,18,o),
(430,18,cs),
(436,18,o),
(440,22,o),
(440,28,cs)
);
}
